<svg xmlns="http://www.w3.org/2000/svg" xmlns:xlink="http://www.w3.org/1999/xlink" width="500" zoomAndPan="magnify" viewBox="0 0 375 374.999991" height="500" preserveAspectRatio="xMidYMid meet" version="1.0"><defs><g/></defs><rect x="-37.5" width="450" fill="#ffffff" y="-37.499999" height="449.999989" fill-opacity="1"/><rect x="-37.5" width="450" fill="#141414" y="-37.499999" height="449.999989" fill-opacity="1"/><g fill="#ffffff" fill-opacity="1"><g transform="translate(0.0000045, 263.61448)"><g><path d="M 42.296875 -72.859375 L 71.703125 0 L 53.875 0 L 48.484375 -14.578125 L 20.75 -14.578125 L 15.359375 0 L -2.46875 0 L 26.9375 -72.859375 Z M 42.828125 -29.140625 L 34.703125 -50.34375 L 34.53125 -50.34375 L 26.40625 -29.140625 Z M 42.828125 -29.140625 "/></g></g></g><g fill="#ffffff" fill-opacity="1"><g transform="translate(69.236961, 263.61448)"><g><path d="M 5.296875 0 L 5.296875 -75.953125 L 20.9375 -75.953125 L 20.9375 0 Z M 5.296875 0 "/></g></g></g><g fill="#ffffff" fill-opacity="1"><g transform="translate(95.465753, 263.61448)"><g><path d="M 51.921875 -39.640625 C 56.160156 -34.992188 58.28125 -29.316406 58.28125 -22.609375 C 58.28125 -15.898438 56.160156 -10.234375 51.921875 -5.609375 C 47.679688 -0.984375 42.296875 1.328125 35.765625 1.328125 C 29.765625 1.328125 24.820312 -0.820312 20.9375 -5.125 L 20.75 -5.125 L 20.75 0 L 5.296875 0 L 5.296875 -75.953125 L 20.9375 -75.953125 L 20.9375 -40.984375 C 24.820312 -44.742188 29.765625 -46.625 35.765625 -46.625 C 42.296875 -46.625 47.679688 -44.296875 51.921875 -39.640625 Z M 38.765625 -14.96875 C 40.710938 -16.9375 41.6875 -19.476562 41.6875 -22.59375 C 41.6875 -25.71875 40.671875 -28.28125 38.640625 -30.28125 C 36.609375 -32.289062 34.09375 -33.296875 31.09375 -33.296875 C 28.144531 -33.296875 25.65625 -32.289062 23.625 -30.28125 C 21.59375 -28.28125 20.578125 -25.722656 20.578125 -22.609375 C 20.578125 -19.546875 21.5625 -17.015625 23.53125 -15.015625 C 25.507812 -13.015625 28.03125 -12.015625 31.09375 -12.015625 C 34.269531 -12.015625 36.828125 -13 38.765625 -14.96875 Z M 38.765625 -14.96875 "/></g></g></g><g fill="#ffffff" fill-opacity="1"><g transform="translate(155.783151, 263.61448)"><g><path d="M 20.046875 -45.296875 L 20.046875 -23.75 C 20.046875 -19.28125 20.722656 -16.101562 22.078125 -14.21875 C 23.429688 -12.332031 25.726562 -11.390625 28.96875 -11.390625 C 32.207031 -11.390625 34.503906 -12.332031 35.859375 -14.21875 C 37.210938 -16.101562 37.890625 -19.28125 37.890625 -23.75 L 37.890625 -45.296875 L 53.515625 -45.296875 L 53.515625 -19.953125 C 53.515625 -12.421875 51.554688 -6.988281 47.640625 -3.65625 C 43.722656 -0.332031 37.492188 1.328125 28.953125 1.328125 C 20.421875 1.328125 14.195312 -0.332031 10.28125 -3.65625 C 6.375 -6.988281 4.421875 -12.421875 4.421875 -19.953125 L 4.421875 -45.296875 Z M 20.046875 -45.296875 "/></g></g></g><g fill="#ffffff" fill-opacity="1"><g transform="translate(213.716116, 263.61448)"><g><path d="M 5.296875 0 L 5.296875 -45.296875 L 20.9375 -45.296875 L 20.9375 -40.53125 L 21.109375 -40.53125 C 25.171875 -44.59375 29.5 -46.625 34.09375 -46.625 C 37.382812 -46.625 40.472656 -45.945312 43.359375 -44.59375 C 46.242188 -43.238281 48.421875 -41.148438 49.890625 -38.328125 C 54.484375 -43.859375 59.488281 -46.625 64.90625 -46.625 C 69.738281 -46.625 73.890625 -45.269531 77.359375 -42.5625 C 80.835938 -39.851562 82.578125 -35.613281 82.578125 -29.84375 L 82.578125 0 L 66.9375 0 L 66.9375 -25.609375 C 66.9375 -28.023438 66.273438 -30.039062 64.953125 -31.65625 C 63.628906 -33.28125 61.644531 -34.09375 59 -34.09375 C 56.695312 -34.09375 54.941406 -33.398438 53.734375 -32.015625 C 52.523438 -30.628906 51.863281 -28.96875 51.75 -27.03125 L 51.75 0 L 36.125 0 L 36.125 -25.609375 C 36.125 -28.023438 35.457031 -30.039062 34.125 -31.65625 C 32.800781 -33.28125 30.816406 -34.09375 28.171875 -34.09375 C 25.753906 -34.09375 23.941406 -33.335938 22.734375 -31.828125 C 21.535156 -30.328125 20.9375 -28.550781 20.9375 -26.5 L 20.9375 0 Z M 5.296875 0 "/></g></g></g><g fill="#ffffff" fill-opacity="1"><g transform="translate(0.0000045, 344.614475)"><g><path d="M 44.0625 -15.015625 C 46.59375 -15.015625 49.050781 -15.394531 51.4375 -16.15625 C 53.820312 -16.925781 55.578125 -17.664062 56.703125 -18.375 L 58.375 -19.515625 L 65.4375 -5.390625 C 65.207031 -5.210938 64.882812 -4.972656 64.46875 -4.671875 C 64.050781 -4.378906 63.09375 -3.835938 61.59375 -3.046875 C 60.09375 -2.253906 58.488281 -1.5625 56.78125 -0.96875 C 55.070312 -0.382812 52.832031 0.140625 50.0625 0.609375 C 47.300781 1.085938 44.445312 1.328125 41.5 1.328125 C 34.726562 1.328125 28.3125 -0.332031 22.25 -3.65625 C 16.1875 -6.988281 11.300781 -11.566406 7.59375 -17.390625 C 3.882812 -23.222656 2.03125 -29.523438 2.03125 -36.296875 C 2.03125 -41.421875 3.117188 -46.335938 5.296875 -51.046875 C 7.472656 -55.753906 10.367188 -59.785156 13.984375 -63.140625 C 17.609375 -66.492188 21.832031 -69.171875 26.65625 -71.171875 C 31.488281 -73.179688 36.4375 -74.1875 41.5 -74.1875 C 46.21875 -74.1875 50.5625 -73.625 54.53125 -72.5 C 58.507812 -71.382812 61.320312 -70.269531 62.96875 -69.15625 L 65.4375 -67.46875 L 58.375 -53.34375 C 57.957031 -53.695312 57.335938 -54.125 56.515625 -54.625 C 55.691406 -55.125 54.039062 -55.785156 51.5625 -56.609375 C 49.09375 -57.429688 46.59375 -57.84375 44.0625 -57.84375 C 40.0625 -57.84375 36.472656 -57.191406 33.296875 -55.890625 C 30.117188 -54.597656 27.601562 -52.890625 25.75 -50.765625 C 23.894531 -48.648438 22.476562 -46.367188 21.5 -43.921875 C 20.53125 -41.484375 20.046875 -39 20.046875 -36.46875 C 20.046875 -30.9375 22.117188 -25.976562 26.265625 -21.59375 C 30.421875 -17.207031 36.351562 -15.015625 44.0625 -15.015625 Z M 44.0625 -15.015625 "/></g></g></g><g fill="#ffffff" fill-opacity="1"><g transform="translate(66.499271, 344.614475)"><g><path d="M 9.578125 -5.375 C 4.546875 -9.851562 2.03125 -15.59375 2.03125 -22.59375 C 2.03125 -29.601562 4.648438 -35.359375 9.890625 -39.859375 C 15.128906 -44.367188 21.601562 -46.625 29.3125 -46.625 C 36.914062 -46.625 43.320312 -44.359375 48.53125 -39.828125 C 53.738281 -35.296875 56.34375 -29.554688 56.34375 -22.609375 C 56.34375 -15.660156 53.796875 -9.929688 48.703125 -5.421875 C 43.609375 -0.921875 37.144531 1.328125 29.3125 1.328125 C 21.1875 1.328125 14.609375 -0.90625 9.578125 -5.375 Z M 21.6875 -30.28125 C 19.65625 -28.28125 18.640625 -25.71875 18.640625 -22.59375 C 18.640625 -19.476562 19.609375 -16.9375 21.546875 -14.96875 C 23.492188 -13 26.054688 -12.015625 29.234375 -12.015625 C 32.296875 -12.015625 34.8125 -13.015625 36.78125 -15.015625 C 38.75 -17.015625 39.734375 -19.546875 39.734375 -22.609375 C 39.734375 -25.722656 38.71875 -28.28125 36.6875 -30.28125 C 34.65625 -32.289062 32.171875 -33.296875 29.234375 -33.296875 C 26.234375 -33.296875 23.71875 -32.289062 21.6875 -30.28125 Z M 21.6875 -30.28125 "/></g></g></g><g fill="#ffffff" fill-opacity="1"><g transform="translate(124.873795, 344.614475)"><g><path d="M 16.78125 -45.296875 L 27.8125 -20.671875 L 38.859375 -45.296875 L 57.40625 -45.296875 L 33.109375 0 L 22.515625 0 L -1.765625 -45.296875 Z M 16.78125 -45.296875 "/></g></g></g><g fill="#ffffff" fill-opacity="1"><g transform="translate(180.510628, 344.614475)"><g><path d="M 51.140625 -20.484375 L 18.28125 -20.484375 C 18.28125 -17.304688 19.3125 -14.953125 21.375 -13.421875 C 23.4375 -11.890625 25.671875 -11.125 28.078125 -11.125 C 30.609375 -11.125 32.609375 -11.460938 34.078125 -12.140625 C 35.554688 -12.816406 37.238281 -14.15625 39.125 -16.15625 L 50.421875 -10.515625 C 45.710938 -2.617188 37.882812 1.328125 26.9375 1.328125 C 20.101562 1.328125 14.242188 -1.007812 9.359375 -5.6875 C 4.472656 -10.375 2.03125 -16.015625 2.03125 -22.609375 C 2.03125 -29.203125 4.472656 -34.851562 9.359375 -39.5625 C 14.242188 -44.269531 20.101562 -46.625 26.9375 -46.625 C 34.113281 -46.625 39.953125 -44.546875 44.453125 -40.390625 C 48.960938 -36.242188 51.21875 -30.316406 51.21875 -22.609375 C 51.21875 -21.546875 51.191406 -20.835938 51.140625 -20.484375 Z M 18.71875 -29.140625 L 35.9375 -29.140625 C 35.582031 -31.492188 34.65625 -33.300781 33.15625 -34.5625 C 31.65625 -35.832031 29.726562 -36.46875 27.375 -36.46875 C 24.78125 -36.46875 22.71875 -35.789062 21.1875 -34.4375 C 19.664062 -33.082031 18.84375 -31.316406 18.71875 -29.140625 Z M 18.71875 -29.140625 "/></g></g></g><g fill="#ffffff" fill-opacity="1"><g transform="translate(233.763027, 344.614475)"><g><path d="M 5.296875 0 L 5.296875 -45.296875 L 20.9375 -45.296875 L 20.9375 -38.765625 L 21.109375 -38.765625 C 21.222656 -39.003906 21.410156 -39.300781 21.671875 -39.65625 C 21.941406 -40.007812 22.519531 -40.625 23.40625 -41.5 C 24.289062 -42.382812 25.234375 -43.179688 26.234375 -43.890625 C 27.234375 -44.597656 28.523438 -45.226562 30.109375 -45.78125 C 31.703125 -46.34375 33.320312 -46.625 34.96875 -46.625 C 36.675781 -46.625 38.351562 -46.390625 40 -45.921875 C 41.65625 -45.453125 42.863281 -44.984375 43.625 -44.515625 L 44.859375 -43.796875 L 38.328125 -30.5625 C 36.378906 -32.207031 33.671875 -33.03125 30.203125 -33.03125 C 28.316406 -33.03125 26.695312 -32.617188 25.34375 -31.796875 C 23.988281 -30.972656 23.03125 -29.972656 22.46875 -28.796875 C 21.914062 -27.617188 21.519531 -26.613281 21.28125 -25.78125 C 21.050781 -24.957031 20.9375 -24.3125 20.9375 -23.84375 L 20.9375 0 Z M 5.296875 0 "/></g></g></g></svg>