<svg xmlns="http://www.w3.org/2000/svg" xmlns:xlink="http://www.w3.org/1999/xlink" width="500" zoomAndPan="magnify" viewBox="0 0 375 374.999991" height="500" preserveAspectRatio="xMidYMid meet" version="1.0"><path fill="#d7d7d7" d="M 27.457031 27.457031 C 0 54.917969 0 99.113281 0 187.5 C 0 275.886719 0 320.082031 27.457031 347.539062 C 54.917969 375 99.113281 375 187.5 375 C 275.886719 375 320.082031 375 347.539062 347.539062 C 375 320.082031 375 275.886719 375 187.5 C 375 99.113281 375 54.917969 347.539062 27.457031 C 320.082031 0 275.886719 0 187.5 0 C 99.113281 0 54.917969 0 27.457031 27.457031 Z M 117.1875 112.5 C 117.1875 94.378906 131.878906 79.6875 150 79.6875 L 243.75 79.6875 C 251.515625 79.6875 257.8125 85.984375 257.8125 93.75 C 257.8125 101.515625 251.515625 107.8125 243.75 107.8125 L 150 107.8125 C 147.410156 107.8125 145.3125 109.910156 145.3125 112.5 L 145.3125 173.4375 L 243.75 173.4375 C 251.515625 173.4375 257.8125 179.734375 257.8125 187.5 C 257.8125 195.265625 251.515625 201.5625 243.75 201.5625 L 145.3125 201.5625 L 145.3125 262.5 C 145.3125 265.089844 147.410156 267.1875 150 267.1875 L 243.75 267.1875 C 251.515625 267.1875 257.8125 273.484375 257.8125 281.25 C 257.8125 289.015625 251.515625 295.3125 243.75 295.3125 L 150 295.3125 C 131.878906 295.3125 117.1875 280.621094 117.1875 262.5 Z M 117.1875 112.5 " fill-opacity="1" fill-rule="evenodd"/></svg>