<svg xmlns="http://www.w3.org/2000/svg" xmlns:xlink="http://www.w3.org/1999/xlink" width="500" zoomAndPan="magnify" viewBox="0 0 375 374.999991" height="500" preserveAspectRatio="xMidYMid meet" version="1.0"><defs><filter x="0%" y="0%" width="100%" height="100%" id="2f1ea660e8"><feColorMatrix values="0 0 0 0 1 0 0 0 0 1 0 0 0 0 1 0 0 0 1 0" color-interpolation-filters="sRGB"/></filter><mask id="3389366f1b"><g filter="url(#2f1ea660e8)"><rect x="-37.5" width="450" fill="#000000" y="-37.499999" height="449.999989" fill-opacity="0.25"/></g></mask><clipPath id="de3bb041ee"><path d="M 0 0 L 375 0 L 375 375 L 0 375 Z M 0 0 " clip-rule="nonzero"/></clipPath><clipPath id="10f6230d0f"><path d="M 187.5 0 C 83.945312 0 0 83.945312 0 187.5 C 0 291.054688 83.945312 375 187.5 375 C 291.054688 375 375 291.054688 375 187.5 C 375 83.945312 291.054688 0 187.5 0 Z M 187.5 0 " clip-rule="nonzero"/></clipPath><clipPath id="cefdde13a9"><rect x="0" width="375" y="0" height="375"/></clipPath><clipPath id="12b3d6a2a8"><path d="M 68.6875 64.378906 L 306.4375 64.378906 L 306.4375 310.378906 L 68.6875 310.378906 Z M 68.6875 64.378906 " clip-rule="nonzero"/></clipPath></defs><g mask="url(#3389366f1b)"><g transform="matrix(1, 0, 0, 1, 0, 0)"><g clip-path="url(#cefdde13a9)"><g clip-path="url(#de3bb041ee)"><g clip-path="url(#10f6230d0f)"><rect x="-82.5" width="540" fill="#e7e9ec" height="539.999987" y="-82.499998" fill-opacity="1"/></g></g></g></g></g><g clip-path="url(#12b3d6a2a8)"><path fill="#ffffff" d="M 306.308594 176.433594 L 306.308594 274.046875 C 306.308594 294.234375 289.945312 310.601562 269.757812 310.601562 L 233.203125 310.601562 C 218.121094 310.601562 205.792969 298.355469 205.792969 283.269531 L 205.792969 264.90625 C 205.792969 259.882812 201.671875 255.859375 196.652344 255.859375 L 178.367188 255.859375 C 173.34375 255.859375 169.222656 259.882812 169.222656 264.90625 L 169.222656 283.269531 C 169.222656 298.355469 156.878906 310.601562 141.8125 310.601562 L 105.242188 310.601562 C 85.054688 310.601562 68.6875 294.234375 68.6875 274.046875 L 68.6875 176.433594 C 68.6875 166.289062 72.988281 156.425781 80.574219 149.566406 L 162.820312 74.175781 C 169.863281 67.675781 178.726562 64.394531 187.507812 64.394531 C 196.289062 64.394531 205.152344 67.675781 212.179688 74.175781 L 294.425781 149.582031 C 302.011719 156.425781 306.308594 166.289062 306.308594 176.433594 Z M 306.308594 176.433594 " fill-opacity="1" fill-rule="nonzero"/></g></svg>