<svg xmlns="http://www.w3.org/2000/svg" xmlns:xlink="http://www.w3.org/1999/xlink" width="500" zoomAndPan="magnify" viewBox="0 0 375 374.999991" height="500" preserveAspectRatio="xMidYMid meet" version="1.0"><defs><filter x="0%" y="0%" width="100%" height="100%" id="17ca9c4120"><feColorMatrix values="0 0 0 0 1 0 0 0 0 1 0 0 0 0 1 0 0 0 1 0" color-interpolation-filters="sRGB"/></filter><mask id="63c1ff3818"><g filter="url(#17ca9c4120)"><rect x="-37.5" width="450" fill="#000000" y="-37.499999" height="449.999989" fill-opacity="0.25"/></g></mask><clipPath id="46e0c63612"><path d="M 0 0 L 375 0 L 375 375 L 0 375 Z M 0 0 " clip-rule="nonzero"/></clipPath><clipPath id="3362990b40"><path d="M 187.5 0 C 83.945312 0 0 83.945312 0 187.5 C 0 291.054688 83.945312 375 187.5 375 C 291.054688 375 375 291.054688 375 187.5 C 375 83.945312 291.054688 0 187.5 0 Z M 187.5 0 " clip-rule="nonzero"/></clipPath><clipPath id="fec062be48"><rect x="0" width="375" y="0" height="375"/></clipPath><clipPath id="286adcec75"><path d="M 56.660156 45 L 318.410156 45 L 318.410156 316.105469 L 56.660156 316.105469 Z M 56.660156 45 " clip-rule="nonzero"/></clipPath></defs><g mask="url(#63c1ff3818)"><g transform="matrix(1, 0, 0, 1, 0, 0)"><g clip-path="url(#fec062be48)"><g clip-path="url(#46e0c63612)"><g clip-path="url(#3362990b40)"><rect x="-82.5" width="540" fill="#e7e9ec" height="539.999987" y="-82.499998" fill-opacity="1"/></g></g></g></g></g><g clip-path="url(#286adcec75)"><path fill="#ffffff" d="M 278.074219 316.285156 L 237.804688 316.285156 C 221.160156 316.285156 207.625 302.75 207.625 286.105469 L 207.625 265.972656 C 207.625 260.421875 203.105469 255.921875 197.574219 255.921875 L 177.425781 255.921875 C 171.875 255.921875 167.375 260.441406 167.375 265.972656 L 167.375 286.105469 C 167.375 302.75 153.839844 316.285156 137.195312 316.285156 L 96.910156 316.285156 C 74.714844 316.285156 56.660156 298.230469 56.660156 276.039062 L 56.660156 168.539062 C 56.660156 157.28125 61.414062 146.472656 69.707031 138.882812 L 160.289062 55.855469 C 175.796875 41.648438 199.203125 41.648438 214.707031 55.855469 L 305.292969 138.882812 C 313.585938 146.488281 318.339844 157.296875 318.339844 168.539062 L 318.339844 276.019531 C 318.320312 298.230469 300.265625 316.285156 278.074219 316.285156 Z M 177.425781 235.789062 L 197.574219 235.789062 C 214.222656 235.789062 227.757812 249.324219 227.757812 265.972656 L 227.757812 286.105469 C 227.757812 291.652344 232.277344 296.152344 237.804688 296.152344 L 278.074219 296.152344 C 289.167969 296.152344 298.207031 287.132812 298.207031 276.019531 L 298.207031 168.539062 C 298.207031 162.917969 295.820312 157.515625 291.683594 153.71875 L 201.101562 70.691406 C 193.347656 63.570312 181.636719 63.570312 173.882812 70.691406 L 83.316406 153.71875 C 79.179688 157.515625 76.792969 162.917969 76.792969 168.539062 L 76.792969 276.019531 C 76.792969 287.117188 85.8125 296.152344 96.925781 296.152344 L 137.195312 296.152344 C 142.742188 296.152344 147.242188 291.632812 147.242188 286.105469 L 147.242188 265.972656 C 147.242188 249.324219 160.777344 235.789062 177.425781 235.789062 Z M 177.425781 235.789062 " fill-opacity="1" fill-rule="nonzero"/></g></svg>