<svg xmlns="http://www.w3.org/2000/svg" xmlns:xlink="http://www.w3.org/1999/xlink" width="500" zoomAndPan="magnify" viewBox="0 0 375 374.999991" height="500" preserveAspectRatio="xMidYMid meet" version="1.0"><defs><clipPath id="3a30c4ea0b"><path d="M 2 20 L 373 20 L 373 363.273438 L 2 363.273438 Z M 2 20 " clip-rule="nonzero"/></clipPath></defs><g clip-path="url(#3a30c4ea0b)"><path fill="#d7d7d7" d="M 190.628906 363.488281 C 181.433594 363.488281 172.539062 359.644531 166.160156 352.914062 L 35.503906 214.894531 C -3.226562 173.984375 -8.5625 109.789062 23.085938 65.554688 C 41.90625 39.269531 70.429688 23.023438 101.375 21.011719 C 131.878906 19.011719 161.65625 30.9375 183.195312 53.699219 L 188.164062 58.953125 C 226.992188 17.085938 289.863281 11.523438 331.789062 46.210938 C 355.789062 66.0625 370.277344 94.539062 372.585938 126.386719 C 374.910156 158.371094 364.167969 189.90625 343.132812 212.910156 L 215.433594 352.519531 C 209.125 359.417969 200.171875 363.417969 190.882812 363.5 C 190.8125 363.488281 190.710938 363.488281 190.628906 363.488281 Z M 107.917969 52.96875 C 106.496094 52.96875 105.089844 53.011719 103.667969 53.109375 C 82.707031 54.476562 63.910156 65.371094 50.734375 83.769531 C 28.027344 115.503906 32.25 163.59375 60.320312 193.253906 L 190.613281 330.882812 L 317.949219 191.664062 C 333.125 175.066406 340.855469 152.078125 339.148438 128.59375 C 337.460938 105.382812 327.085938 84.769531 309.910156 70.566406 C 281.429688 47 239.789062 51.308594 213.027344 80.5625 C 206.71875 87.460938 197.765625 91.457031 188.472656 91.542969 C 188.390625 91.542969 188.289062 91.542969 188.207031 91.542969 C 179.011719 91.542969 170.101562 87.699219 163.738281 80.96875 L 158.390625 75.324219 C 144.804688 60.992188 126.601562 52.96875 107.917969 52.96875 Z M 107.917969 52.96875 " fill-opacity="1" fill-rule="nonzero"/></g></svg>