<svg xmlns="http://www.w3.org/2000/svg" xmlns:xlink="http://www.w3.org/1999/xlink" width="500" zoomAndPan="magnify" viewBox="0 0 375 374.999991" height="500" preserveAspectRatio="xMidYMid meet" version="1.0"><defs><clipPath id="8da3cc2303"><path d="M 2 20 L 373 20 L 373 363.835938 L 2 363.835938 Z M 2 20 " clip-rule="nonzero"/></clipPath></defs><g clip-path="url(#8da3cc2303)"><path fill="#1ed760" d="M 190.433594 363.671875 C 181.230469 363.671875 172.324219 359.824219 165.941406 353.089844 L 35.144531 214.921875 C -3.625 173.96875 -8.96875 109.703125 22.714844 65.421875 C 41.554688 39.109375 70.109375 22.847656 101.085938 20.832031 C 131.625 18.832031 161.429688 30.769531 182.992188 53.554688 L 187.96875 58.8125 C 226.835938 16.902344 289.773438 11.332031 331.746094 46.058594 C 355.773438 65.929688 370.273438 94.441406 372.585938 126.320312 C 374.910156 158.335938 364.15625 189.90625 343.101562 212.933594 L 215.265625 352.695312 C 208.953125 359.597656 199.988281 363.601562 190.6875 363.6875 C 190.617188 363.671875 190.519531 363.671875 190.433594 363.671875 Z M 190.433594 363.671875 " fill-opacity="1" fill-rule="nonzero"/></g></svg>