<svg xmlns="http://www.w3.org/2000/svg" xmlns:xlink="http://www.w3.org/1999/xlink" width="500" zoomAndPan="magnify" viewBox="0 0 375 374.999991" height="500" preserveAspectRatio="xMidYMid meet" version="1.0"><defs><clipPath id="8a852c6c67"><path d="M 0 267.085938 L 59 267.085938 L 59 324.75 L 0 324.75 Z M 0 267.085938 " clip-rule="nonzero"/></clipPath><clipPath id="1262288ad9"><path d="M 0 37.5 L 59 37.5 L 59 95 L 0 95 Z M 0 37.5 " clip-rule="nonzero"/></clipPath></defs><path fill="#d7d7d7" d="M 375 296.648438 C 375 284.792969 365.386719 275.179688 353.53125 275.179688 L 108.777344 275.179688 C 96.921875 275.179688 87.308594 284.792969 87.308594 296.648438 C 87.308594 308.507812 96.921875 318.121094 108.777344 318.121094 L 353.53125 318.121094 C 365.386719 318.121094 375 308.507812 375 296.648438 " fill-opacity="1" fill-rule="nonzero"/><g clip-path="url(#8a852c6c67)"><path fill="#d7d7d7" d="M 28.625 324.796875 L 30.058594 324.796875 C 45.867188 324.796875 58.683594 311.980469 58.683594 296.171875 C 58.683594 280.363281 45.867188 267.542969 30.058594 267.542969 L 28.625 267.542969 C 12.816406 267.542969 0 280.363281 0 296.171875 C 0 311.980469 12.816406 324.796875 28.625 324.796875 " fill-opacity="1" fill-rule="nonzero"/></g><path fill="#d7d7d7" d="M 353.53125 159.960938 L 108.777344 159.960938 C 96.921875 159.960938 87.308594 169.570312 87.308594 181.429688 C 87.308594 193.289062 96.921875 202.902344 108.777344 202.902344 L 353.53125 202.902344 C 365.386719 202.902344 375 193.289062 375 181.429688 C 375 169.570312 365.386719 159.960938 353.53125 159.960938 " fill-opacity="1" fill-rule="nonzero"/><path fill="#d7d7d7" d="M 30.058594 152.804688 L 28.625 152.804688 C 12.816406 152.804688 0 165.621094 0 181.429688 C 0 197.238281 12.816406 210.054688 28.625 210.054688 L 30.058594 210.054688 C 45.867188 210.054688 58.683594 197.238281 58.683594 181.429688 C 58.683594 165.621094 45.867188 152.804688 30.058594 152.804688 " fill-opacity="1" fill-rule="nonzero"/><path fill="#d7d7d7" d="M 87.308594 66.210938 C 87.308594 78.070312 96.921875 87.679688 108.777344 87.679688 L 353.53125 87.679688 C 365.386719 87.679688 375 78.070312 375 66.210938 C 375 54.351562 365.386719 44.742188 353.53125 44.742188 L 108.777344 44.742188 C 96.921875 44.742188 87.308594 54.351562 87.308594 66.210938 " fill-opacity="1" fill-rule="nonzero"/><g clip-path="url(#1262288ad9)"><path fill="#d7d7d7" d="M 30.058594 37.585938 L 28.625 37.585938 C 12.816406 37.585938 0 50.402344 0 66.210938 C 0 82.019531 12.816406 94.835938 28.625 94.835938 L 30.058594 94.835938 C 45.867188 94.835938 58.683594 82.019531 58.683594 66.210938 C 58.683594 50.402344 45.867188 37.585938 30.058594 37.585938 " fill-opacity="1" fill-rule="nonzero"/></g></svg>