<svg xmlns="http://www.w3.org/2000/svg" xmlns:xlink="http://www.w3.org/1999/xlink" width="500" zoomAndPan="magnify" viewBox="0 0 375 374.999991" height="500" preserveAspectRatio="xMidYMid meet" version="1.0"><defs><clipPath id="0091dd8806"><path d="M 1 39.140625 L 374 39.140625 L 374 288 L 1 288 Z M 1 39.140625 " clip-rule="nonzero"/></clipPath></defs><g clip-path="url(#0091dd8806)"><path fill="#d7d7d7" d="M 125.359375 39.140625 L 249.640625 39.140625 C 318.164062 39.140625 373.921875 94.894531 373.921875 163.421875 C 373.921875 231.945312 318.164062 287.699219 249.640625 287.699219 L 203.035156 287.699219 C 194.460938 287.699219 187.5 280.742188 187.5 272.164062 C 187.5 263.589844 194.460938 256.628906 203.035156 256.628906 L 249.640625 256.628906 C 301.046875 256.628906 342.851562 214.824219 342.851562 163.421875 C 342.851562 112.015625 301.046875 70.210938 249.640625 70.210938 L 125.359375 70.210938 C 73.953125 70.210938 32.148438 112.015625 32.148438 163.421875 C 32.148438 214.824219 73.953125 256.628906 125.359375 256.628906 C 133.933594 256.628906 140.894531 263.589844 140.894531 272.164062 C 140.894531 280.742188 133.933594 287.699219 125.359375 287.699219 C 56.835938 287.699219 1.078125 231.945312 1.078125 163.421875 C 1.078125 94.894531 56.835938 39.140625 125.359375 39.140625 Z M 125.359375 39.140625 " fill-opacity="1" fill-rule="nonzero"/></g><path fill="#d7d7d7" d="M 249.640625 210.027344 C 253.617188 210.027344 257.59375 211.546875 260.625 214.578125 C 266.699219 220.652344 266.699219 230.46875 260.625 236.542969 L 225 272.164062 L 260.625 307.789062 C 266.699219 313.863281 266.699219 323.679688 260.625 329.753906 C 254.550781 335.828125 244.730469 335.828125 238.65625 329.753906 L 192.050781 283.148438 C 185.976562 277.074219 185.976562 267.257812 192.050781 261.183594 L 238.65625 214.578125 C 241.6875 211.546875 245.664062 210.027344 249.640625 210.027344 Z M 249.640625 210.027344 " fill-opacity="1" fill-rule="nonzero"/><path fill="#d7d7d7" d="M 125.359375 256.628906 L 140.894531 256.628906 C 149.46875 256.628906 156.429688 263.589844 156.429688 272.164062 C 156.429688 280.742188 149.46875 287.699219 140.894531 287.699219 L 125.359375 287.699219 C 116.785156 287.699219 109.824219 280.742188 109.824219 272.164062 C 109.824219 263.589844 116.785156 256.628906 125.359375 256.628906 Z M 125.359375 256.628906 " fill-opacity="1" fill-rule="nonzero"/></svg>