<svg xmlns="http://www.w3.org/2000/svg" xmlns:xlink="http://www.w3.org/1999/xlink" width="500" zoomAndPan="magnify" viewBox="0 0 375 374.999991" height="500" preserveAspectRatio="xMidYMid meet" version="1.0"><path fill="#d7d7d7" d="M 228.261719 15.667969 C 227.050781 15.066406 225.804688 14.554688 224.523438 14.128906 C 223.242188 13.703125 221.9375 13.367188 220.609375 13.125 C 219.277344 12.882812 217.9375 12.734375 216.589844 12.679688 C 215.238281 12.625 213.890625 12.664062 212.546875 12.800781 C 211.203125 12.933594 209.875 13.160156 208.5625 13.480469 C 207.25 13.800781 205.96875 14.214844 204.714844 14.714844 C 203.457031 15.214844 202.246094 15.800781 201.074219 16.472656 C 199.898438 17.144531 198.78125 17.894531 197.714844 18.722656 L 96.21875 96.753906 C 95.183594 97.546875 94.015625 97.9375 92.710938 97.921875 L 30.921875 97.921875 C 29.972656 97.925781 29.019531 97.972656 28.074219 98.066406 C 27.125 98.160156 26.183594 98.300781 25.25 98.488281 C 24.316406 98.675781 23.394531 98.90625 22.484375 99.183594 C 21.574219 99.460938 20.679688 99.78125 19.800781 100.148438 C 18.917969 100.511719 18.058594 100.917969 17.222656 101.367188 C 16.382812 101.816406 15.566406 102.308594 14.773438 102.835938 C 13.984375 103.367188 13.21875 103.933594 12.484375 104.539062 C 11.746094 105.140625 11.042969 105.78125 10.371094 106.453125 C 9.695312 107.128906 9.058594 107.832031 8.453125 108.570312 C 7.851562 109.304688 7.285156 110.066406 6.753906 110.859375 C 6.226562 111.652344 5.738281 112.46875 5.289062 113.308594 C 4.839844 114.148438 4.433594 115.007812 4.066406 115.886719 C 3.703125 116.765625 3.382812 117.660156 3.105469 118.570312 C 2.828125 119.484375 2.597656 120.40625 2.410156 121.339844 C 2.222656 122.273438 2.082031 123.214844 1.988281 124.160156 C 1.894531 125.109375 1.847656 126.058594 1.847656 127.011719 L 1.847656 259.917969 C 1.847656 260.871094 1.898438 261.820312 1.992188 262.765625 C 2.085938 263.714844 2.226562 264.65625 2.414062 265.589844 C 2.597656 266.523438 2.832031 267.445312 3.109375 268.355469 C 3.382812 269.265625 3.707031 270.160156 4.070312 271.039062 C 4.433594 271.917969 4.84375 272.777344 5.292969 273.617188 C 5.742188 274.457031 6.230469 275.273438 6.757812 276.0625 C 7.289062 276.855469 7.855469 277.617188 8.457031 278.355469 C 9.0625 279.089844 9.699219 279.792969 10.375 280.46875 C 11.046875 281.140625 11.75 281.78125 12.488281 282.382812 C 13.222656 282.988281 13.988281 283.554688 14.777344 284.082031 C 15.570312 284.613281 16.382812 285.101562 17.222656 285.550781 C 18.0625 286 18.921875 286.40625 19.800781 286.769531 C 20.679688 287.136719 21.574219 287.457031 22.488281 287.734375 C 23.398438 288.011719 24.320312 288.242188 25.253906 288.429688 C 26.1875 288.617188 27.128906 288.757812 28.074219 288.851562 C 29.023438 288.945312 29.972656 288.992188 30.921875 288.992188 L 96.96875 288.992188 C 98.148438 289 99.222656 289.339844 100.195312 290.011719 L 198.871094 358.3125 C 199.957031 359.066406 201.089844 359.738281 202.265625 360.335938 C 203.441406 360.933594 204.65625 361.449219 205.902344 361.882812 C 207.152344 362.3125 208.421875 362.660156 209.714844 362.917969 C 211.011719 363.175781 212.316406 363.347656 213.636719 363.429688 C 214.953125 363.507812 216.269531 363.5 217.585938 363.402344 C 218.902344 363.304688 220.207031 363.117188 221.5 362.839844 C 222.789062 362.5625 224.054688 362.203125 225.296875 361.753906 C 226.539062 361.304688 227.746094 360.773438 228.914062 360.160156 C 230.082031 359.546875 231.207031 358.859375 232.28125 358.09375 C 233.359375 357.328125 234.375 356.492188 235.339844 355.589844 C 236.300781 354.683594 237.195312 353.71875 238.027344 352.691406 C 238.855469 351.664062 239.613281 350.585938 240.296875 349.457031 C 240.980469 348.328125 241.585938 347.15625 242.109375 345.945312 C 242.632812 344.734375 243.070312 343.492188 243.425781 342.21875 C 243.78125 340.949219 244.046875 339.660156 244.226562 338.351562 C 244.40625 337.042969 244.496094 335.726562 244.496094 334.40625 L 244.496094 41.761719 C 244.5 40.410156 244.410156 39.0625 244.226562 37.722656 C 244.042969 36.382812 243.765625 35.0625 243.398438 33.761719 C 243.03125 32.460938 242.570312 31.195312 242.023438 29.957031 C 241.476562 28.71875 240.847656 27.527344 240.132812 26.378906 C 239.417969 25.230469 238.628906 24.140625 237.757812 23.101562 C 236.890625 22.066406 235.957031 21.09375 234.953125 20.1875 C 233.949219 19.28125 232.886719 18.449219 231.765625 17.695312 C 230.644531 16.9375 229.476562 16.261719 228.261719 15.667969 Z M 221.105469 334.40625 C 221.105469 334.925781 221.035156 335.4375 220.898438 335.9375 C 220.757812 336.4375 220.554688 336.910156 220.285156 337.355469 C 220.015625 337.796875 219.695312 338.199219 219.316406 338.554688 C 218.9375 338.910156 218.519531 339.207031 218.058594 339.449219 C 217.597656 339.691406 217.117188 339.867188 216.609375 339.972656 C 216.101562 340.082031 215.585938 340.121094 215.070312 340.089844 C 214.550781 340.054688 214.046875 339.957031 213.554688 339.785156 C 213.066406 339.613281 212.605469 339.382812 212.179688 339.085938 L 113.503906 270.796875 C 111.078125 269.101562 108.449219 267.8125 105.625 266.925781 C 102.796875 266.039062 99.90625 265.597656 96.945312 265.601562 L 30.921875 265.601562 C 30.550781 265.601562 30.179688 265.566406 29.816406 265.492188 C 29.449219 265.417969 29.09375 265.308594 28.75 265.167969 C 28.40625 265.023438 28.078125 264.847656 27.769531 264.640625 C 27.457031 264.433594 27.171875 264.199219 26.90625 263.933594 C 26.644531 263.671875 26.40625 263.382812 26.199219 263.074219 C 25.992188 262.765625 25.816406 262.4375 25.675781 262.09375 C 25.53125 261.746094 25.421875 261.394531 25.351562 261.027344 C 25.277344 260.660156 25.238281 260.292969 25.238281 259.917969 L 25.238281 127.023438 C 25.238281 126.648438 25.273438 126.277344 25.347656 125.914062 C 25.421875 125.546875 25.527344 125.191406 25.671875 124.84375 C 25.8125 124.5 25.988281 124.171875 26.195312 123.863281 C 26.402344 123.550781 26.640625 123.261719 26.902344 123 C 27.167969 122.734375 27.453125 122.5 27.765625 122.289062 C 28.074219 122.082031 28.402344 121.90625 28.746094 121.761719 C 29.089844 121.621094 29.449219 121.511719 29.8125 121.4375 C 30.179688 121.363281 30.550781 121.328125 30.921875 121.328125 L 92.746094 121.328125 C 95.949219 121.320312 99.070312 120.804688 102.105469 119.773438 C 105.140625 118.742188 107.929688 117.253906 110.476562 115.304688 L 211.945312 37.210938 C 212.367188 36.886719 212.828125 36.625 213.324219 36.429688 C 213.820312 36.230469 214.332031 36.105469 214.863281 36.054688 C 215.394531 36.003906 215.921875 36.023438 216.445312 36.121094 C 216.96875 36.214844 217.472656 36.382812 217.949219 36.621094 C 218.425781 36.859375 218.863281 37.15625 219.257812 37.515625 C 219.648438 37.875 219.984375 38.285156 220.265625 38.738281 C 220.542969 39.191406 220.753906 39.675781 220.898438 40.191406 C 221.039062 40.703125 221.109375 41.226562 221.105469 41.761719 Z M 221.105469 334.40625 " fill-opacity="1" fill-rule="nonzero"/></svg>