<svg xmlns="http://www.w3.org/2000/svg" xmlns:xlink="http://www.w3.org/1999/xlink" width="500" zoomAndPan="magnify" viewBox="0 0 375 374.999991" height="500" preserveAspectRatio="xMidYMid meet" version="1.0"><defs><clipPath id="a149c358e7"><path d="M 37.5 4 L 337.5 4 L 337.5 372 L 37.5 372 Z M 37.5 4 " clip-rule="nonzero"/></clipPath></defs><g clip-path="url(#a149c358e7)"><path fill="#d7d7d7" d="M 310.730469 369.363281 C 303.855469 366.511719 299.917969 359.160156 299.917969 351.726562 L 299.917969 209.144531 L 99.855469 334.894531 C 72.757812 351.921875 37.5 332.457031 37.5 300.445312 L 37.5 74.71875 C 37.5 42.707031 72.757812 23.226562 99.855469 40.269531 L 299.917969 166.003906 L 299.917969 23.390625 C 299.917969 15.957031 303.855469 8.605469 310.730469 5.753906 C 324.445312 0.0507812 337.566406 9.941406 337.566406 22.929688 L 337.566406 352.1875 C 337.566406 365.175781 324.445312 375.066406 310.730469 369.363281 Z M 310.730469 369.363281 " fill-opacity="1" fill-rule="nonzero"/></g></svg>