<svg xmlns="http://www.w3.org/2000/svg" xmlns:xlink="http://www.w3.org/1999/xlink" width="500" zoomAndPan="magnify" viewBox="0 0 375 374.999991" height="500" preserveAspectRatio="xMidYMid meet" version="1.0"><defs><clipPath id="8907c76f0a"><path d="M 61.996094 4 L 304.246094 4 L 304.246094 316.546875 L 61.996094 316.546875 Z M 61.996094 4 " clip-rule="nonzero"/></clipPath><clipPath id="044786b214"><path d="M 151.875 124.417969 L 214.125 124.417969 L 214.125 195.667969 L 151.875 195.667969 Z M 151.875 124.417969 " clip-rule="nonzero"/></clipPath><clipPath id="23ab66dd12"><path d="M 167.109375 329.835938 L 207.609375 329.835938 L 207.609375 370.335938 L 167.109375 370.335938 Z M 167.109375 329.835938 " clip-rule="nonzero"/></clipPath></defs><g clip-path="url(#8907c76f0a)"><path fill="#1ed760" d="M 304.382812 53.800781 L 304.382812 266.554688 C 304.382812 293.949219 282.097656 316.238281 254.703125 316.238281 L 111.679688 316.238281 C 84.285156 316.238281 61.996094 293.949219 61.996094 266.554688 L 61.996094 53.800781 C 61.996094 26.402344 84.285156 4.117188 111.679688 4.117188 L 254.703125 4.117188 C 282.097656 4.117188 304.382812 26.402344 304.382812 53.800781 Z M 75.652344 266.554688 C 75.652344 286.421875 91.8125 302.582031 111.679688 302.582031 L 254.703125 302.582031 C 274.566406 302.582031 290.726562 286.421875 290.726562 266.554688 L 290.726562 53.800781 C 290.726562 33.933594 274.566406 17.773438 254.703125 17.773438 L 111.679688 17.773438 C 91.8125 17.773438 75.652344 33.933594 75.652344 53.800781 Z M 75.652344 266.554688 " fill-opacity="1" fill-rule="nonzero"/></g><g clip-path="url(#044786b214)"><path fill="#1ed760" d="M 212.332031 156.445312 L 158.527344 125.382812 C 157.160156 124.59375 155.480469 124.59375 154.113281 125.382812 C 152.75 126.167969 151.90625 127.625 151.90625 129.203125 L 151.90625 191.332031 C 151.90625 192.910156 152.75 194.367188 154.113281 195.152344 C 154.796875 195.550781 155.558594 195.746094 156.320312 195.746094 C 157.082031 195.746094 157.84375 195.546875 158.527344 195.152344 L 212.332031 164.089844 C 213.699219 163.300781 214.535156 161.84375 214.535156 160.269531 C 214.535156 158.691406 213.695312 157.234375 212.332031 156.445312 Z M 212.332031 156.445312 " fill-opacity="1" fill-rule="nonzero"/></g><g clip-path="url(#23ab66dd12)"><path fill="#1ed760" d="M 207.890625 350.226562 C 207.890625 350.894531 207.855469 351.5625 207.792969 352.226562 C 207.726562 352.890625 207.628906 353.550781 207.5 354.207031 C 207.367188 354.859375 207.207031 355.507812 207.011719 356.148438 C 206.816406 356.785156 206.59375 357.414062 206.339844 358.03125 C 206.082031 358.648438 205.796875 359.25 205.484375 359.839844 C 205.167969 360.429688 204.824219 361 204.453125 361.554688 C 204.082031 362.109375 203.683594 362.648438 203.261719 363.164062 C 202.839844 363.679688 202.390625 364.171875 201.917969 364.644531 C 201.445312 365.117188 200.953125 365.566406 200.433594 365.988281 C 199.917969 366.414062 199.382812 366.8125 198.828125 367.183594 C 198.273438 367.550781 197.699219 367.894531 197.113281 368.210938 C 196.523438 368.523438 195.917969 368.808594 195.300781 369.066406 C 194.6875 369.320312 194.058594 369.546875 193.417969 369.738281 C 192.78125 369.933594 192.132812 370.097656 191.476562 370.226562 C 190.824219 370.355469 190.164062 370.453125 189.5 370.519531 C 188.832031 370.585938 188.167969 370.617188 187.5 370.617188 C 186.832031 370.617188 186.164062 370.585938 185.5 370.519531 C 184.835938 370.453125 184.175781 370.355469 183.523438 370.226562 C 182.867188 370.097656 182.21875 369.933594 181.582031 369.738281 C 180.941406 369.546875 180.3125 369.320312 179.695312 369.066406 C 179.078125 368.808594 178.476562 368.523438 177.886719 368.210938 C 177.296875 367.894531 176.726562 367.550781 176.171875 367.183594 C 175.617188 366.8125 175.078125 366.414062 174.5625 365.988281 C 174.046875 365.566406 173.554688 365.117188 173.082031 364.644531 C 172.609375 364.171875 172.160156 363.679688 171.738281 363.164062 C 171.3125 362.648438 170.917969 362.109375 170.546875 361.554688 C 170.175781 361 169.832031 360.429688 169.515625 359.839844 C 169.203125 359.25 168.917969 358.648438 168.660156 358.03125 C 168.40625 357.414062 168.179688 356.785156 167.988281 356.148438 C 167.792969 355.507812 167.632812 354.859375 167.5 354.207031 C 167.371094 353.550781 167.273438 352.890625 167.207031 352.226562 C 167.140625 351.5625 167.109375 350.894531 167.109375 350.226562 C 167.109375 349.558594 167.140625 348.894531 167.207031 348.230469 C 167.273438 347.5625 167.371094 346.90625 167.5 346.25 C 167.632812 345.59375 167.792969 344.949219 167.988281 344.308594 C 168.179688 343.667969 168.40625 343.042969 168.660156 342.425781 C 168.917969 341.808594 169.203125 341.203125 169.515625 340.617188 C 169.832031 340.027344 170.175781 339.453125 170.546875 338.898438 C 170.917969 338.34375 171.3125 337.808594 171.738281 337.292969 C 172.160156 336.777344 172.609375 336.28125 173.082031 335.808594 C 173.554688 335.335938 174.046875 334.890625 174.5625 334.464844 C 175.078125 334.042969 175.617188 333.644531 176.171875 333.273438 C 176.726562 332.902344 177.296875 332.558594 177.886719 332.246094 C 178.476562 331.929688 179.078125 331.644531 179.695312 331.390625 C 180.3125 331.132812 180.941406 330.910156 181.582031 330.714844 C 182.21875 330.519531 182.867188 330.359375 183.523438 330.230469 C 184.175781 330.097656 184.835938 330 185.5 329.933594 C 186.164062 329.871094 186.832031 329.835938 187.5 329.835938 C 188.167969 329.835938 188.832031 329.871094 189.5 329.933594 C 190.164062 330 190.824219 330.097656 191.476562 330.230469 C 192.132812 330.359375 192.78125 330.519531 193.417969 330.714844 C 194.058594 330.910156 194.6875 331.132812 195.300781 331.390625 C 195.917969 331.644531 196.523438 331.929688 197.113281 332.246094 C 197.699219 332.558594 198.273438 332.902344 198.828125 333.273438 C 199.382812 333.644531 199.917969 334.042969 200.433594 334.464844 C 200.953125 334.890625 201.445312 335.335938 201.917969 335.808594 C 202.390625 336.28125 202.839844 336.777344 203.261719 337.292969 C 203.683594 337.808594 204.082031 338.34375 204.453125 338.898438 C 204.824219 339.453125 205.167969 340.027344 205.484375 340.617188 C 205.796875 341.203125 206.082031 341.808594 206.339844 342.425781 C 206.59375 343.042969 206.816406 343.667969 207.011719 344.308594 C 207.207031 344.949219 207.367188 345.59375 207.5 346.25 C 207.628906 346.90625 207.726562 347.5625 207.792969 348.230469 C 207.855469 348.894531 207.890625 349.558594 207.890625 350.226562 Z M 207.890625 350.226562 " fill-opacity="1" fill-rule="nonzero"/></g></svg>