<svg xmlns="http://www.w3.org/2000/svg" xmlns:xlink="http://www.w3.org/1999/xlink" width="500" zoomAndPan="magnify" viewBox="0 0 375 374.999991" height="500" preserveAspectRatio="xMidYMid meet" version="1.0"><defs><clipPath id="532fd2e98e"><path d="M 61.996094 4 L 304.246094 4 L 304.246094 316.546875 L 61.996094 316.546875 Z M 61.996094 4 " clip-rule="nonzero"/></clipPath><clipPath id="878aa8eb8d"><path d="M 151.875 124.417969 L 214.125 124.417969 L 214.125 195.667969 L 151.875 195.667969 Z M 151.875 124.417969 " clip-rule="nonzero"/></clipPath></defs><g clip-path="url(#532fd2e98e)"><path fill="#d7d7d7" d="M 304.382812 53.800781 L 304.382812 266.554688 C 304.382812 293.949219 282.097656 316.238281 254.703125 316.238281 L 111.679688 316.238281 C 84.285156 316.238281 61.996094 293.949219 61.996094 266.554688 L 61.996094 53.800781 C 61.996094 26.402344 84.285156 4.117188 111.679688 4.117188 L 254.703125 4.117188 C 282.097656 4.117188 304.382812 26.402344 304.382812 53.800781 Z M 75.652344 266.554688 C 75.652344 286.421875 91.8125 302.582031 111.679688 302.582031 L 254.703125 302.582031 C 274.566406 302.582031 290.726562 286.421875 290.726562 266.554688 L 290.726562 53.800781 C 290.726562 33.933594 274.566406 17.773438 254.703125 17.773438 L 111.679688 17.773438 C 91.8125 17.773438 75.652344 33.933594 75.652344 53.800781 Z M 75.652344 266.554688 " fill-opacity="1" fill-rule="nonzero"/></g><g clip-path="url(#878aa8eb8d)"><path fill="#d7d7d7" d="M 212.332031 156.445312 L 158.527344 125.382812 C 157.160156 124.59375 155.480469 124.59375 154.113281 125.382812 C 152.75 126.167969 151.90625 127.625 151.90625 129.203125 L 151.90625 191.332031 C 151.90625 192.910156 152.75 194.367188 154.113281 195.152344 C 154.796875 195.550781 155.558594 195.742188 156.320312 195.742188 C 157.082031 195.742188 157.84375 195.546875 158.527344 195.152344 L 212.332031 164.089844 C 213.699219 163.300781 214.535156 161.84375 214.535156 160.269531 C 214.535156 158.691406 213.695312 157.234375 212.332031 156.445312 Z M 212.332031 156.445312 " fill-opacity="1" fill-rule="nonzero"/></g></svg>