<svg xmlns="http://www.w3.org/2000/svg" xmlns:xlink="http://www.w3.org/1999/xlink" width="500" zoomAndPan="magnify" viewBox="0 0 375 374.999991" height="500" preserveAspectRatio="xMidYMid meet" version="1.0"><defs><clipPath id="950bc5c3f5"><path d="M 46.171875 1 L 328 1 L 328 375 L 46.171875 375 Z M 46.171875 1 " clip-rule="nonzero"/></clipPath></defs><g clip-path="url(#950bc5c3f5)"><path fill="#1ed760" d="M 324.003906 85.527344 L 194.789062 2.355469 C 191.144531 0.0078125 186.238281 1.070312 183.890625 4.714844 L 177.132812 15.214844 C 174.789062 18.863281 175.851562 23.765625 179.496094 26.113281 L 190.605469 33.261719 L 184.710938 42.417969 L 184.726562 42.429688 L 147.980469 99.519531 L 58.042969 130.535156 L 48.164062 145.878906 L 134.769531 201.628906 L 56.074219 323.886719 L 46.328125 374.917969 L 46.28125 374.992188 L 46.316406 374.964844 L 46.308594 375.011719 L 46.355469 374.9375 L 88.769531 344.933594 L 167.46875 222.675781 L 151.132812 212.160156 L 151.121094 212.152344 L 254.074219 278.421875 L 263.953125 263.078125 L 254.941406 168.371094 L 291.691406 111.28125 L 291.707031 111.292969 L 297.601562 102.136719 L 308.707031 109.285156 C 312.355469 111.632812 317.261719 110.570312 319.605469 106.921875 L 326.363281 96.425781 C 328.707031 92.765625 327.636719 87.875 323.992188 85.519531 Z M 324.003906 85.527344 " fill-opacity="1" fill-rule="nonzero"/></g></svg>