<svg xmlns="http://www.w3.org/2000/svg" xmlns:xlink="http://www.w3.org/1999/xlink" width="500" zoomAndPan="magnify" viewBox="0 0 375 374.999991" height="500" preserveAspectRatio="xMidYMid meet" version="1.0"><defs><clipPath id="ff8998bc80"><path d="M 23.4375 1 L 351.9375 1 L 351.9375 374 L 23.4375 374 Z M 23.4375 1 " clip-rule="nonzero"/></clipPath></defs><g clip-path="url(#ff8998bc80)"><path fill="#ffffff" d="M 340.320312 167.84375 L 58.304688 5.03125 C 51.140625 0.898438 42.335938 0.898438 35.179688 5.03125 C 28.023438 9.15625 23.617188 16.789062 23.617188 25.054688 L 23.617188 350.710938 C 23.617188 358.976562 28.023438 366.609375 35.179688 370.734375 C 38.757812 372.828125 42.75 373.835938 46.742188 373.835938 C 50.734375 373.835938 54.726562 372.796875 58.304688 370.734375 L 340.320312 207.921875 C 347.492188 203.789062 351.875 196.15625 351.875 187.890625 C 351.875 179.625 347.476562 171.984375 340.320312 167.84375 Z M 340.320312 167.84375 " fill-opacity="1" fill-rule="nonzero"/></g></svg>