<svg xmlns="http://www.w3.org/2000/svg" xmlns:xlink="http://www.w3.org/1999/xlink" width="500" zoomAndPan="magnify" viewBox="0 0 375 374.999991" height="500" preserveAspectRatio="xMidYMid meet" version="1.0"><defs><clipPath id="03d98d6978"><path d="M 187.5 0 C 83.945312 0 0 83.945312 0 187.5 C 0 291.054688 83.945312 375 187.5 375 C 291.054688 375 375 291.054688 375 187.5 C 375 83.945312 291.054688 0 187.5 0 Z M 187.5 0 " clip-rule="nonzero"/></clipPath><clipPath id="288a720dd7"><path d="M 141.09375 123 L 254.34375 123 L 254.34375 252 L 141.09375 252 Z M 141.09375 123 " clip-rule="nonzero"/></clipPath></defs><g clip-path="url(#03d98d6978)"><rect x="-37.5" width="450" fill="#1ed760" y="-37.499999" height="449.999989" fill-opacity="1"/></g><g clip-path="url(#288a720dd7)"><path fill="#000000" d="M 250.464844 180.652344 L 153.128906 124.316406 C 150.65625 122.886719 147.617188 122.886719 145.144531 124.316406 C 142.675781 125.746094 141.15625 128.386719 141.15625 131.246094 L 141.15625 243.921875 C 141.15625 246.78125 142.675781 249.421875 145.144531 250.851562 C 146.382812 251.574219 147.757812 251.925781 149.136719 251.925781 C 150.515625 251.925781 151.894531 251.566406 153.128906 250.851562 L 250.464844 194.519531 C 252.9375 193.085938 254.453125 190.445312 254.453125 187.585938 C 254.453125 184.726562 252.933594 182.082031 250.464844 180.652344 Z M 250.464844 180.652344 " fill-opacity="1" fill-rule="nonzero"/></g></svg>