<svg xmlns="http://www.w3.org/2000/svg" xmlns:xlink="http://www.w3.org/1999/xlink" width="500" zoomAndPan="magnify" viewBox="0 0 375 374.999991" height="500" preserveAspectRatio="xMidYMid meet" version="1.0"><path fill="#ffffff" d="M 187.5 0 C 184.429688 0 181.363281 0.0742188 178.300781 0.226562 C 175.234375 0.375 172.175781 0.601562 169.121094 0.902344 C 166.066406 1.203125 163.023438 1.578125 159.988281 2.03125 C 156.953125 2.480469 153.929688 3.003906 150.921875 3.601562 C 147.910156 4.203125 144.917969 4.875 141.941406 5.617188 C 138.964844 6.363281 136.007812 7.183594 133.070312 8.074219 C 130.136719 8.964844 127.222656 9.925781 124.332031 10.960938 C 121.445312 11.996094 118.582031 13.097656 115.746094 14.273438 C 112.910156 15.445312 110.105469 16.691406 107.332031 18.003906 C 104.558594 19.3125 101.820312 20.691406 99.113281 22.140625 C 96.40625 23.585938 93.738281 25.097656 91.105469 26.675781 C 88.472656 28.253906 85.882812 29.894531 83.332031 31.597656 C 80.777344 33.304688 78.269531 35.070312 75.804688 36.898438 C 73.339844 38.726562 70.921875 40.613281 68.550781 42.558594 C 66.179688 44.507812 63.855469 46.511719 61.582031 48.570312 C 59.308594 50.632812 57.085938 52.746094 54.917969 54.917969 C 52.746094 57.085938 50.632812 59.308594 48.570312 61.582031 C 46.511719 63.855469 44.507812 66.179688 42.558594 68.550781 C 40.613281 70.921875 38.726562 73.339844 36.898438 75.804688 C 35.070312 78.269531 33.304688 80.777344 31.597656 83.332031 C 29.894531 85.882812 28.253906 88.472656 26.675781 91.105469 C 25.097656 93.738281 23.585938 96.40625 22.140625 99.113281 C 20.691406 101.820312 19.3125 104.558594 18.003906 107.332031 C 16.691406 110.105469 15.445312 112.910156 14.273438 115.746094 C 13.097656 118.582031 11.996094 121.445312 10.960938 124.332031 C 9.925781 127.222656 8.964844 130.136719 8.074219 133.070312 C 7.183594 136.007812 6.363281 138.964844 5.617188 141.941406 C 4.875 144.917969 4.203125 147.910156 3.601562 150.921875 C 3.003906 153.929688 2.480469 156.953125 2.03125 159.988281 C 1.578125 163.023438 1.203125 166.066406 0.902344 169.121094 C 0.601562 172.175781 0.375 175.234375 0.226562 178.300781 C 0.0742188 181.363281 0 184.429688 0 187.5 C 0 190.570312 0.0742188 193.636719 0.226562 196.699219 C 0.375 199.765625 0.601562 202.824219 0.902344 205.878906 C 1.203125 208.933594 1.578125 211.976562 2.03125 215.011719 C 2.480469 218.046875 3.003906 221.070312 3.601562 224.078125 C 4.203125 227.089844 4.875 230.082031 5.617188 233.058594 C 6.363281 236.035156 7.183594 238.992188 8.074219 241.929688 C 8.964844 244.863281 9.925781 247.777344 10.960938 250.667969 C 11.996094 253.554688 13.097656 256.417969 14.273438 259.253906 C 15.445312 262.089844 16.691406 264.894531 18.003906 267.667969 C 19.3125 270.441406 20.691406 273.179688 22.140625 275.886719 C 23.585938 278.59375 25.097656 281.261719 26.675781 283.894531 C 28.253906 286.527344 29.894531 289.117188 31.597656 291.667969 C 33.304688 294.222656 35.070312 296.730469 36.898438 299.195312 C 38.726562 301.660156 40.613281 304.078125 42.558594 306.449219 C 44.507812 308.820312 46.511719 311.144531 48.570312 313.417969 C 50.632812 315.691406 52.746094 317.914062 54.917969 320.082031 C 57.085938 322.253906 59.308594 324.367188 61.582031 326.429688 C 63.855469 328.488281 66.179688 330.492188 68.550781 332.4375 C 70.921875 334.386719 73.339844 336.273438 75.804688 338.101562 C 78.269531 339.929688 80.777344 341.695312 83.332031 343.402344 C 85.882812 345.105469 88.472656 346.746094 91.105469 348.324219 C 93.738281 349.902344 96.40625 351.414062 99.113281 352.859375 C 101.820312 354.308594 104.558594 355.6875 107.332031 356.996094 C 110.105469 358.308594 112.910156 359.554688 115.746094 360.726562 C 118.582031 361.902344 121.445312 363.003906 124.332031 364.039062 C 127.222656 365.074219 130.136719 366.035156 133.070312 366.925781 C 136.007812 367.816406 138.964844 368.636719 141.941406 369.378906 C 144.917969 370.125 147.910156 370.796875 150.921875 371.398438 C 153.929688 371.996094 156.953125 372.519531 159.988281 372.96875 C 163.023438 373.421875 166.066406 373.796875 169.121094 374.097656 C 172.175781 374.398438 175.234375 374.625 178.300781 374.773438 C 181.363281 374.925781 184.429688 375 187.5 375 C 190.570312 375 193.636719 374.925781 196.699219 374.773438 C 199.765625 374.625 202.824219 374.398438 205.878906 374.097656 C 208.933594 373.796875 211.976562 373.421875 215.011719 372.96875 C 218.046875 372.519531 221.070312 371.996094 224.078125 371.398438 C 227.089844 370.796875 230.082031 370.125 233.058594 369.378906 C 236.035156 368.636719 238.992188 367.816406 241.929688 366.925781 C 244.863281 366.035156 247.777344 365.074219 250.667969 364.039062 C 253.554688 363.003906 256.417969 361.902344 259.253906 360.726562 C 262.089844 359.554688 264.894531 358.308594 267.667969 356.996094 C 270.441406 355.6875 273.179688 354.308594 275.886719 352.859375 C 278.59375 351.414062 281.261719 349.902344 283.894531 348.324219 C 286.527344 346.746094 289.117188 345.105469 291.667969 343.402344 C 294.222656 341.695312 296.730469 339.929688 299.195312 338.101562 C 301.660156 336.273438 304.078125 334.386719 306.449219 332.4375 C 308.820312 330.492188 311.144531 328.488281 313.417969 326.429688 C 315.691406 324.367188 317.914062 322.253906 320.082031 320.082031 C 322.253906 317.914062 324.367188 315.691406 326.429688 313.417969 C 328.488281 311.144531 330.492188 308.820312 332.4375 306.449219 C 334.386719 304.078125 336.273438 301.660156 338.101562 299.195312 C 339.929688 296.730469 341.695312 294.222656 343.402344 291.667969 C 345.105469 289.117188 346.746094 286.527344 348.324219 283.894531 C 349.902344 281.261719 351.414062 278.59375 352.859375 275.886719 C 354.308594 273.179688 355.6875 270.441406 356.996094 267.667969 C 358.308594 264.894531 359.554688 262.089844 360.726562 259.253906 C 361.902344 256.417969 363.003906 253.554688 364.039062 250.667969 C 365.074219 247.777344 366.035156 244.863281 366.925781 241.929688 C 367.816406 238.992188 368.636719 236.035156 369.378906 233.058594 C 370.125 230.082031 370.796875 227.089844 371.398438 224.078125 C 371.996094 221.070312 372.519531 218.046875 372.96875 215.011719 C 373.421875 211.976562 373.796875 208.933594 374.097656 205.878906 C 374.398438 202.824219 374.625 199.765625 374.773438 196.699219 C 374.925781 193.636719 375 190.570312 375 187.5 C 374.996094 184.433594 374.917969 181.367188 374.765625 178.300781 C 374.613281 175.238281 374.382812 172.179688 374.082031 169.128906 C 373.777344 166.074219 373.398438 163.03125 372.949219 159.996094 C 372.496094 156.960938 371.96875 153.941406 371.367188 150.933594 C 370.765625 147.925781 370.09375 144.933594 369.347656 141.957031 C 368.597656 138.980469 367.777344 136.027344 366.886719 133.089844 C 365.992188 130.15625 365.03125 127.246094 363.996094 124.355469 C 362.960938 121.46875 361.855469 118.609375 360.679688 115.773438 C 359.503906 112.941406 358.261719 110.136719 356.949219 107.363281 C 355.632812 104.59375 354.253906 101.851562 352.808594 99.148438 C 351.359375 96.445312 349.847656 93.777344 348.269531 91.144531 C 346.691406 88.515625 345.050781 85.921875 343.347656 83.371094 C 341.640625 80.824219 339.875 78.316406 338.046875 75.851562 C 336.21875 73.386719 334.332031 70.96875 332.386719 68.597656 C 330.4375 66.226562 328.433594 63.90625 326.375 61.632812 C 324.3125 59.359375 322.199219 57.140625 320.03125 54.96875 C 317.859375 52.800781 315.640625 50.6875 313.367188 48.625 C 311.09375 46.566406 308.773438 44.5625 306.402344 42.613281 C 304.03125 40.667969 301.613281 38.78125 299.148438 36.953125 C 296.683594 35.125 294.175781 33.359375 291.628906 31.652344 C 289.078125 29.949219 286.484375 28.308594 283.855469 26.730469 C 281.226562 25.152344 278.558594 23.640625 275.851562 22.191406 C 273.148438 20.746094 270.40625 19.367188 267.636719 18.050781 C 264.863281 16.738281 262.058594 15.496094 259.226562 14.320312 C 256.390625 13.144531 253.53125 12.039062 250.644531 11.003906 C 247.753906 9.96875 244.84375 9.007812 241.910156 8.113281 C 238.972656 7.222656 236.019531 6.402344 233.042969 5.652344 C 230.066406 4.90625 227.074219 4.234375 224.066406 3.632812 C 221.058594 3.03125 218.039062 2.503906 215.003906 2.050781 C 211.96875 1.601562 208.925781 1.222656 205.871094 0.917969 C 202.820312 0.617188 199.761719 0.386719 196.699219 0.234375 C 193.632812 0.0820312 190.566406 0.00390625 187.5 0 Z M 280.894531 195.355469 L 138.035156 270.535156 C 136.726562 271.113281 135.359375 271.410156 133.929688 271.429688 C 132.257812 271.464844 130.710938 271.046875 129.285156 270.179688 C 128.628906 269.777344 128.03125 269.300781 127.496094 268.746094 C 126.960938 268.191406 126.507812 267.578125 126.132812 266.902344 C 125.757812 266.230469 125.472656 265.519531 125.28125 264.773438 C 125.089844 264.027344 124.996094 263.269531 125 262.5 L 125 112.5 C 124.996094 111.730469 125.089844 110.972656 125.28125 110.226562 C 125.472656 109.480469 125.757812 108.769531 126.132812 108.097656 C 126.507812 107.421875 126.960938 106.808594 127.496094 106.253906 C 128.03125 105.699219 128.628906 105.222656 129.285156 104.820312 C 129.953125 104.445312 130.660156 104.160156 131.398438 103.96875 C 132.140625 103.773438 132.894531 103.675781 133.660156 103.675781 C 134.425781 103.675781 135.179688 103.773438 135.921875 103.96875 C 136.664062 104.160156 137.367188 104.445312 138.035156 104.820312 L 280.894531 180 C 281.628906 180.359375 282.300781 180.816406 282.90625 181.363281 C 283.515625 181.910156 284.035156 182.53125 284.46875 183.226562 C 284.898438 183.921875 285.230469 184.664062 285.453125 185.449219 C 285.679688 186.234375 285.792969 187.039062 285.792969 187.855469 C 285.792969 188.675781 285.679688 189.476562 285.453125 190.265625 C 285.230469 191.050781 284.898438 191.792969 284.46875 192.488281 C 284.035156 193.179688 283.515625 193.804688 282.90625 194.351562 C 282.300781 194.898438 281.628906 195.355469 280.894531 195.714844 Z M 280.894531 195.355469 " fill-opacity="1" fill-rule="nonzero"/></svg>