<svg xmlns="http://www.w3.org/2000/svg" xmlns:xlink="http://www.w3.org/1999/xlink" width="500" zoomAndPan="magnify" viewBox="0 0 375 374.999991" height="500" preserveAspectRatio="xMidYMid meet" version="1.0"><defs><clipPath id="23f670bc44"><path d="M 37.5 4 L 337.5 4 L 337.5 372 L 37.5 372 Z M 37.5 4 " clip-rule="nonzero"/></clipPath></defs><g clip-path="url(#23f670bc44)"><path fill="#d7d7d7" d="M 64.269531 369.363281 C 71.144531 366.511719 75.082031 359.160156 75.082031 351.726562 L 75.082031 209.144531 L 275.144531 334.894531 C 302.242188 351.921875 337.5 332.457031 337.5 300.445312 L 337.5 74.71875 C 337.5 42.707031 302.242188 23.226562 275.144531 40.269531 L 75.082031 166.003906 L 75.082031 23.390625 C 75.082031 15.957031 71.144531 8.605469 64.269531 5.753906 C 50.554688 0.0507812 37.433594 9.941406 37.433594 22.929688 L 37.433594 352.1875 C 37.433594 365.175781 50.554688 375.066406 64.269531 369.363281 Z M 64.269531 369.363281 " fill-opacity="1" fill-rule="nonzero"/></g></svg>