<svg xmlns="http://www.w3.org/2000/svg" xmlns:xlink="http://www.w3.org/1999/xlink" width="500" zoomAndPan="magnify" viewBox="0 0 375 374.999991" height="500" preserveAspectRatio="xMidYMid meet" version="1.0"><defs><g/><clipPath id="4a8ee2c586"><path d="M 1 39.140625 L 374 39.140625 L 374 288 L 1 288 Z M 1 39.140625 " clip-rule="nonzero"/></clipPath><clipPath id="4f588923b0"><path d="M 167.109375 329.835938 L 207.609375 329.835938 L 207.609375 370.335938 L 167.109375 370.335938 Z M 167.109375 329.835938 " clip-rule="nonzero"/></clipPath></defs><g clip-path="url(#4a8ee2c586)"><path fill="#1ed760" d="M 125.359375 39.140625 L 249.640625 39.140625 C 318.164062 39.140625 373.921875 94.894531 373.921875 163.421875 C 373.921875 231.945312 318.164062 287.699219 249.640625 287.699219 L 203.035156 287.699219 C 194.460938 287.699219 187.5 280.742188 187.5 272.164062 C 187.5 263.589844 194.460938 256.628906 203.035156 256.628906 L 249.640625 256.628906 C 301.046875 256.628906 342.851562 214.824219 342.851562 163.421875 C 342.851562 112.015625 301.046875 70.210938 249.640625 70.210938 L 125.359375 70.210938 C 73.953125 70.210938 32.148438 112.015625 32.148438 163.421875 C 32.148438 214.824219 73.953125 256.628906 125.359375 256.628906 C 133.933594 256.628906 140.894531 263.589844 140.894531 272.164062 C 140.894531 280.742188 133.933594 287.699219 125.359375 287.699219 C 56.835938 287.699219 1.078125 231.945312 1.078125 163.421875 C 1.078125 94.894531 56.835938 39.140625 125.359375 39.140625 Z M 125.359375 39.140625 " fill-opacity="1" fill-rule="nonzero"/></g><path fill="#1ed760" d="M 249.640625 210.027344 C 253.617188 210.027344 257.59375 211.546875 260.625 214.578125 C 266.699219 220.652344 266.699219 230.46875 260.625 236.542969 L 225 272.164062 L 260.625 307.789062 C 266.699219 313.863281 266.699219 323.679688 260.625 329.753906 C 254.550781 335.828125 244.730469 335.828125 238.65625 329.753906 L 192.050781 283.148438 C 185.976562 277.074219 185.976562 267.257812 192.050781 261.183594 L 238.65625 214.578125 C 241.6875 211.546875 245.664062 210.027344 249.640625 210.027344 Z M 249.640625 210.027344 " fill-opacity="1" fill-rule="nonzero"/><path fill="#1ed760" d="M 125.359375 256.628906 L 140.894531 256.628906 C 149.46875 256.628906 156.429688 263.589844 156.429688 272.164062 C 156.429688 280.742188 149.46875 287.699219 140.894531 287.699219 L 125.359375 287.699219 C 116.785156 287.699219 109.824219 280.742188 109.824219 272.164062 C 109.824219 263.589844 116.785156 256.628906 125.359375 256.628906 Z M 125.359375 256.628906 " fill-opacity="1" fill-rule="nonzero"/><g clip-path="url(#4f588923b0)"><path fill="#1ed760" d="M 207.890625 350.226562 C 207.890625 350.894531 207.855469 351.5625 207.792969 352.226562 C 207.726562 352.890625 207.628906 353.550781 207.5 354.207031 C 207.367188 354.859375 207.207031 355.507812 207.011719 356.148438 C 206.816406 356.785156 206.59375 357.414062 206.339844 358.03125 C 206.082031 358.648438 205.796875 359.25 205.484375 359.839844 C 205.167969 360.429688 204.824219 361 204.453125 361.554688 C 204.082031 362.109375 203.683594 362.648438 203.261719 363.164062 C 202.839844 363.679688 202.390625 364.171875 201.917969 364.644531 C 201.445312 365.117188 200.953125 365.566406 200.433594 365.988281 C 199.917969 366.414062 199.382812 366.8125 198.828125 367.183594 C 198.273438 367.550781 197.699219 367.894531 197.113281 368.210938 C 196.523438 368.523438 195.917969 368.808594 195.300781 369.066406 C 194.6875 369.320312 194.058594 369.546875 193.417969 369.738281 C 192.78125 369.933594 192.132812 370.097656 191.476562 370.226562 C 190.824219 370.355469 190.164062 370.453125 189.5 370.519531 C 188.832031 370.585938 188.167969 370.617188 187.5 370.617188 C 186.832031 370.617188 186.164062 370.585938 185.5 370.519531 C 184.835938 370.453125 184.175781 370.355469 183.523438 370.226562 C 182.867188 370.097656 182.21875 369.933594 181.582031 369.738281 C 180.941406 369.546875 180.3125 369.320312 179.695312 369.066406 C 179.078125 368.808594 178.476562 368.523438 177.886719 368.210938 C 177.296875 367.894531 176.726562 367.550781 176.171875 367.183594 C 175.617188 366.8125 175.078125 366.414062 174.5625 365.988281 C 174.046875 365.566406 173.554688 365.117188 173.082031 364.644531 C 172.609375 364.171875 172.160156 363.679688 171.738281 363.164062 C 171.3125 362.648438 170.917969 362.109375 170.546875 361.554688 C 170.175781 361 169.832031 360.429688 169.515625 359.839844 C 169.203125 359.25 168.917969 358.648438 168.660156 358.03125 C 168.40625 357.414062 168.179688 356.785156 167.988281 356.148438 C 167.792969 355.507812 167.632812 354.859375 167.5 354.207031 C 167.371094 353.550781 167.273438 352.890625 167.207031 352.226562 C 167.140625 351.5625 167.109375 350.894531 167.109375 350.226562 C 167.109375 349.558594 167.140625 348.894531 167.207031 348.230469 C 167.273438 347.5625 167.371094 346.90625 167.5 346.25 C 167.632812 345.59375 167.792969 344.949219 167.988281 344.308594 C 168.179688 343.667969 168.40625 343.042969 168.660156 342.425781 C 168.917969 341.808594 169.203125 341.203125 169.515625 340.617188 C 169.832031 340.027344 170.175781 339.453125 170.546875 338.898438 C 170.917969 338.34375 171.3125 337.808594 171.738281 337.292969 C 172.160156 336.777344 172.609375 336.28125 173.082031 335.808594 C 173.554688 335.335938 174.046875 334.890625 174.5625 334.464844 C 175.078125 334.042969 175.617188 333.644531 176.171875 333.273438 C 176.726562 332.902344 177.296875 332.558594 177.886719 332.246094 C 178.476562 331.929688 179.078125 331.644531 179.695312 331.390625 C 180.3125 331.132812 180.941406 330.910156 181.582031 330.714844 C 182.21875 330.519531 182.867188 330.359375 183.523438 330.230469 C 184.175781 330.097656 184.835938 330 185.5 329.933594 C 186.164062 329.871094 186.832031 329.835938 187.5 329.835938 C 188.167969 329.835938 188.832031 329.871094 189.5 329.933594 C 190.164062 330 190.824219 330.097656 191.476562 330.230469 C 192.132812 330.359375 192.78125 330.519531 193.417969 330.714844 C 194.058594 330.910156 194.6875 331.132812 195.300781 331.390625 C 195.917969 331.644531 196.523438 331.929688 197.113281 332.246094 C 197.699219 332.558594 198.273438 332.902344 198.828125 333.273438 C 199.382812 333.644531 199.917969 334.042969 200.433594 334.464844 C 200.953125 334.890625 201.445312 335.335938 201.917969 335.808594 C 202.390625 336.28125 202.839844 336.777344 203.261719 337.292969 C 203.683594 337.808594 204.082031 338.34375 204.453125 338.898438 C 204.824219 339.453125 205.167969 340.027344 205.484375 340.617188 C 205.796875 341.203125 206.082031 341.808594 206.339844 342.425781 C 206.59375 343.042969 206.816406 343.667969 207.011719 344.308594 C 207.207031 344.949219 207.367188 345.59375 207.5 346.25 C 207.628906 346.90625 207.726562 347.5625 207.792969 348.230469 C 207.855469 348.894531 207.890625 349.558594 207.890625 350.226562 Z M 207.890625 350.226562 " fill-opacity="1" fill-rule="nonzero"/></g><path fill="#000000" d="M 187.503906 -17.175781 C 202.949219 -17.175781 215.46875 -4.65625 215.46875 10.789062 L 215.46875 83.597656 C 215.46875 99.042969 202.949219 111.566406 187.503906 111.566406 C 172.054688 111.566406 159.535156 99.042969 159.535156 83.597656 L 159.535156 10.789062 C 159.535156 -4.65625 172.054688 -17.175781 187.503906 -17.175781 Z M 187.503906 -17.175781 " fill-opacity="1" fill-rule="nonzero"/><g fill="#1ed760" fill-opacity="1"><g transform="translate(164.527347, 84.318979)"><g><path d="M 32.0625 -75.640625 L 32.0625 0 L 22.890625 0 L 22.890625 -62.34375 L 22.3125 -62.34375 C 21.96875 -61.65625 21.078125 -60.875 19.640625 -60 C 18.210938 -59.125 16.363281 -58.359375 14.09375 -57.703125 C 11.832031 -57.054688 9.253906 -56.734375 6.359375 -56.734375 L 6.359375 -64.40625 C 9.285156 -64.40625 11.816406 -64.929688 13.953125 -65.984375 C 16.097656 -67.046875 17.890625 -68.289062 19.328125 -69.71875 C 20.773438 -71.15625 21.875 -72.453125 22.625 -73.609375 C 23.375 -74.765625 23.8125 -75.441406 23.9375 -75.640625 Z M 32.0625 -75.640625 "/></g></g></g></svg>