<svg xmlns="http://www.w3.org/2000/svg" xmlns:xlink="http://www.w3.org/1999/xlink" width="500" zoomAndPan="magnify" viewBox="0 0 375 374.999991" height="500" preserveAspectRatio="xMidYMid meet" version="1.0"><defs><clipPath id="92688b1f59"><path d="M 187 207 L 373 207 L 373 361.359375 L 187 361.359375 Z M 187 207 " clip-rule="nonzero"/></clipPath></defs><path fill="#d7d7d7" d="M 31.941406 315.289062 C 23.816406 315.289062 18.472656 314.640625 17.746094 314.535156 C 8.757812 313.359375 2.425781 305.128906 3.597656 296.140625 C 4.773438 287.164062 13.003906 280.800781 21.929688 281.992188 C 22.441406 282.054688 71.03125 287.691406 97.054688 257.652344 C 105.671875 247.71875 117.488281 231.703125 131.1875 213.152344 C 169.027344 161.90625 216.121094 98.136719 252.847656 83.847656 C 275.164062 75.167969 299.257812 74.074219 319.230469 75.554688 L 293.144531 42.007812 C 290.808594 39.011719 289.683594 35.460938 289.683594 31.941406 C 289.683594 27.058594 291.859375 22.226562 296.015625 18.980469 C 303.167969 13.421875 313.46875 14.703125 319.042969 21.855469 L 371.308594 89.054688 C 371.308594 89.054688 371.324219 89.070312 371.324219 89.070312 C 371.324219 89.070312 371.324219 89.085938 371.339844 89.085938 C 371.339844 89.085938 371.355469 89.085938 371.355469 89.101562 C 371.355469 89.101562 371.371094 89.117188 371.371094 89.117188 C 373.75 92.21875 374.863281 95.925781 374.753906 99.601562 C 374.722656 100.808594 374.550781 101.996094 374.242188 103.171875 C 373.609375 105.65625 372.375 108.019531 370.582031 110.027344 C 370.242188 110.398438 369.902344 110.753906 369.546875 111.09375 L 312.449219 165.722656 C 305.898438 171.992188 295.519531 171.761719 289.25 165.214844 C 282.980469 158.664062 283.210938 148.269531 289.761719 142.015625 L 324.296875 108.976562 C 306.902344 106.925781 284.433594 106.738281 264.738281 114.398438 C 236.878906 125.242188 189.167969 189.847656 157.597656 232.597656 C 143.496094 251.703125 131.3125 268.183594 121.859375 279.085938 C 94.507812 310.71875 53.4375 315.289062 31.941406 315.289062 Z M 31.941406 315.289062 " fill-opacity="1" fill-rule="nonzero"/><g clip-path="url(#92688b1f59)"><path fill="#d7d7d7" d="M 303.738281 361.765625 C 300.214844 361.765625 296.664062 360.636719 293.667969 358.304688 C 289.511719 355.078125 287.335938 350.242188 287.335938 345.347656 C 287.335938 341.824219 288.464844 338.273438 290.796875 335.277344 L 316.882812 301.746094 C 296.910156 303.242188 272.816406 302.132812 250.515625 293.453125 C 234.207031 287.105469 215.59375 271.644531 191.933594 244.785156 C 185.941406 237.988281 186.605469 227.625 193.398438 221.632812 C 200.195312 215.640625 210.558594 216.289062 216.566406 223.101562 C 240.863281 250.683594 254.917969 259.953125 262.421875 262.871094 C 282.101562 270.53125 304.585938 270.347656 321.960938 268.292969 L 287.429688 235.269531 C 280.878906 229 280.648438 218.621094 286.917969 212.074219 C 293.1875 205.523438 303.566406 205.292969 310.117188 211.5625 L 367.371094 266.316406 C 373.425781 272.105469 374.136719 281.527344 369.039062 288.152344 C 369.039062 288.152344 369.039062 288.152344 369.023438 288.167969 C 369.007812 288.167969 369.007812 288.183594 369.007812 288.183594 C 369.007812 288.183594 368.992188 288.183594 368.992188 288.199219 C 368.992188 288.199219 368.976562 288.199219 368.976562 288.214844 C 368.976562 288.214844 368.960938 288.230469 368.960938 288.230469 L 316.695312 355.433594 C 313.46875 359.585938 308.632812 361.765625 303.738281 361.765625 Z M 303.738281 361.765625 " fill-opacity="1" fill-rule="nonzero"/></g><path fill="#d7d7d7" d="M 132.316406 161.058594 C 127.28125 161.058594 122.324219 158.757812 119.09375 154.402344 C 112.4375 145.382812 108.285156 138.988281 104.949219 133.84375 C 101.257812 128.160156 98.816406 124.390625 94.722656 119.667969 C 68.4375 89.347656 20.125 95.246094 19.644531 95.324219 C 10.640625 96.5 2.425781 90.167969 1.25 81.175781 C 0.078125 72.1875 6.410156 63.957031 15.398438 62.78125 C 18.085938 62.441406 81.828125 54.675781 119.527344 98.167969 C 125.117188 104.636719 128.53125 109.890625 132.5 115.992188 C 135.746094 121.011719 139.4375 126.695312 145.503906 134.910156 C 150.894531 142.199219 149.351562 152.472656 142.0625 157.859375 C 139.125 160.007812 135.699219 161.058594 132.316406 161.058594 Z M 132.316406 161.058594 " fill-opacity="1" fill-rule="nonzero"/></svg>