<svg xmlns="http://www.w3.org/2000/svg" xmlns:xlink="http://www.w3.org/1999/xlink" width="500" zoomAndPan="magnify" viewBox="0 0 375 374.999991" height="500" preserveAspectRatio="xMidYMid meet" version="1.0"><path fill="#1ed760" d="M 296.742188 166.542969 C 237.214844 131.191406 139.023438 127.941406 82.195312 145.1875 C 73.070312 147.957031 63.417969 142.804688 60.65625 133.679688 C 57.886719 124.550781 63.035156 114.90625 72.167969 112.132812 C 137.402344 92.332031 245.84375 96.15625 314.371094 136.835938 C 322.578125 141.707031 325.273438 152.308594 320.40625 160.503906 C 315.539062 168.710938 304.929688 171.417969 296.742188 166.542969 Z M 294.792969 218.90625 C 290.613281 225.683594 281.753906 227.808594 274.988281 223.644531 C 225.359375 193.140625 149.679688 184.300781 90.96875 202.125 C 83.351562 204.425781 75.3125 200.132812 72.996094 192.535156 C 70.703125 184.917969 75 176.890625 82.597656 174.578125 C 149.671875 154.222656 233.054688 164.082031 290.054688 199.109375 C 296.824219 203.277344 298.953125 212.144531 294.792969 218.90625 Z M 272.195312 269.191406 C 268.875 274.632812 261.789062 276.339844 256.367188 273.019531 C 213 246.515625 158.417969 240.53125 94.132812 255.214844 C 87.941406 256.632812 81.765625 252.753906 80.351562 246.558594 C 78.933594 240.367188 82.800781 234.191406 89.011719 232.777344 C 159.355469 216.695312 219.699219 223.617188 268.375 253.363281 C 273.800781 256.675781 275.511719 263.765625 272.195312 269.191406 Z M 187.5 2.828125 C 85.511719 2.828125 2.828125 85.507812 2.828125 187.496094 C 2.828125 289.5 85.511719 372.171875 187.5 372.171875 C 289.496094 372.171875 372.171875 289.5 372.171875 187.496094 C 372.171875 85.507812 289.496094 2.828125 187.5 2.828125 " fill-opacity="1" fill-rule="nonzero"/></svg>