<svg xmlns="http://www.w3.org/2000/svg" xmlns:xlink="http://www.w3.org/1999/xlink" width="500" zoomAndPan="magnify" viewBox="0 0 375 374.999991" height="500" preserveAspectRatio="xMidYMid meet" version="1.0"><path fill="#d7d7d7" d="M 218.71875 26.515625 C 217.367188 25.75 215.972656 25.074219 214.535156 24.492188 C 213.09375 23.914062 211.621094 23.429688 210.117188 23.046875 C 208.609375 22.664062 207.085938 22.382812 205.542969 22.203125 C 204.003906 22.027344 202.453125 21.953125 200.902344 21.980469 C 199.347656 22.011719 197.804688 22.144531 196.269531 22.378906 C 194.734375 22.617188 193.222656 22.957031 191.734375 23.394531 C 190.246094 23.835938 188.792969 24.375 187.375 25.007812 C 185.957031 25.644531 184.589844 26.371094 183.269531 27.191406 L 82.003906 89.105469 L 44.136719 89.105469 C 42.796875 89.117188 41.460938 89.191406 40.128906 89.332031 C 38.796875 89.472656 37.472656 89.679688 36.160156 89.949219 C 34.847656 90.21875 33.550781 90.554688 32.273438 90.953125 C 30.992188 91.351562 29.734375 91.808594 28.5 92.332031 C 27.265625 92.851562 26.058594 93.433594 24.882812 94.074219 C 23.703125 94.710938 22.558594 95.410156 21.449219 96.160156 C 20.339844 96.910156 19.269531 97.714844 18.238281 98.574219 C 17.207031 99.429688 16.222656 100.335938 15.28125 101.289062 C 14.339844 102.242188 13.445312 103.238281 12.601562 104.28125 C 11.757812 105.320312 10.96875 106.402344 10.230469 107.519531 C 9.492188 108.640625 8.808594 109.792969 8.183594 110.976562 C 7.558594 112.164062 6.996094 113.375 6.488281 114.617188 C 5.980469 115.859375 5.539062 117.121094 5.15625 118.40625 C 4.773438 119.691406 4.457031 120.992188 4.203125 122.308594 C 3.945312 123.625 3.757812 124.949219 3.632812 126.285156 C 3.507812 127.617188 3.449219 128.957031 3.457031 130.296875 L 3.457031 243.332031 C 3.449219 244.671875 3.507812 246.007812 3.632812 247.34375 C 3.757812 248.679688 3.945312 250.003906 4.199219 251.320312 C 4.453125 252.636719 4.769531 253.9375 5.152344 255.222656 C 5.535156 256.507812 5.980469 257.769531 6.484375 259.011719 C 6.988281 260.253906 7.554688 261.46875 8.179688 262.652344 C 8.804688 263.839844 9.488281 264.992188 10.222656 266.113281 C 10.960938 267.230469 11.753906 268.3125 12.597656 269.351562 C 13.441406 270.394531 14.335938 271.394531 15.277344 272.347656 C 16.21875 273.300781 17.203125 274.207031 18.234375 275.0625 C 19.265625 275.921875 20.335938 276.726562 21.445312 277.476562 C 22.554688 278.230469 23.699219 278.925781 24.878906 279.566406 C 26.054688 280.207031 27.261719 280.785156 28.496094 281.308594 C 29.730469 281.828125 30.988281 282.289062 32.269531 282.6875 C 33.550781 283.085938 34.847656 283.417969 36.160156 283.691406 C 37.472656 283.960938 38.792969 284.167969 40.128906 284.308594 C 41.460938 284.449219 42.796875 284.523438 44.136719 284.535156 L 82.003906 284.535156 L 183.269531 346.449219 C 184.589844 347.269531 185.957031 347.996094 187.375 348.632812 C 188.792969 349.269531 190.246094 349.808594 191.734375 350.246094 C 193.222656 350.6875 194.734375 351.027344 196.269531 351.265625 C 197.804688 351.5 199.347656 351.632812 200.902344 351.664062 C 202.453125 351.691406 204.003906 351.617188 205.546875 351.441406 C 207.085938 351.261719 208.613281 350.980469 210.117188 350.597656 C 211.621094 350.214844 213.09375 349.730469 214.535156 349.148438 C 215.972656 348.566406 217.371094 347.890625 218.71875 347.125 C 220.097656 346.34375 221.421875 345.476562 222.6875 344.523438 C 223.953125 343.566406 225.148438 342.53125 226.277344 341.417969 C 227.402344 340.304688 228.453125 339.121094 229.425781 337.871094 C 230.394531 336.617188 231.28125 335.308594 232.078125 333.9375 C 232.875 332.566406 233.578125 331.152344 234.1875 329.6875 C 234.796875 328.222656 235.308594 326.726562 235.71875 325.195312 C 236.128906 323.664062 236.4375 322.113281 236.640625 320.542969 C 236.847656 318.972656 236.949219 317.394531 236.945312 315.808594 L 236.945312 57.816406 C 236.949219 56.234375 236.847656 54.65625 236.640625 53.085938 C 236.433594 51.515625 236.125 49.964844 235.714844 48.433594 C 235.304688 46.902344 234.792969 45.40625 234.183594 43.945312 C 233.574219 42.484375 232.871094 41.066406 232.074219 39.699219 C 231.277344 38.328125 230.390625 37.019531 229.421875 35.765625 C 228.449219 34.515625 227.402344 33.332031 226.273438 32.21875 C 225.144531 31.105469 223.949219 30.070312 222.683594 29.117188 C 221.421875 28.164062 220.097656 27.296875 218.71875 26.515625 Z M 209.476562 315.808594 C 209.5 316.550781 209.421875 317.28125 209.246094 318 C 209.066406 318.71875 208.796875 319.402344 208.433594 320.046875 C 208.074219 320.695312 207.628906 321.28125 207.105469 321.804688 C 206.582031 322.332031 206 322.777344 205.355469 323.144531 C 204.769531 323.484375 204.148438 323.742188 203.492188 323.917969 C 202.835938 324.089844 202.167969 324.167969 201.488281 324.15625 C 200.8125 324.144531 200.148438 324.039062 199.496094 323.84375 C 198.847656 323.648438 198.234375 323.371094 197.664062 323.003906 L 93.019531 259.070312 C 90.824219 257.726562 88.4375 257.054688 85.863281 257.050781 L 44.136719 257.050781 C 43.253906 257.035156 42.378906 256.929688 41.515625 256.738281 C 40.652344 256.550781 39.816406 256.277344 39.003906 255.921875 C 38.195312 255.570312 37.425781 255.136719 36.699219 254.632812 C 35.972656 254.128906 35.304688 253.554688 34.691406 252.917969 C 34.078125 252.28125 33.53125 251.589844 33.054688 250.84375 C 32.578125 250.097656 32.175781 249.316406 31.855469 248.492188 C 31.53125 247.667969 31.292969 246.820312 31.136719 245.949219 C 30.980469 245.078125 30.910156 244.203125 30.925781 243.316406 L 30.925781 130.296875 C 30.910156 129.410156 30.980469 128.535156 31.136719 127.664062 C 31.292969 126.792969 31.53125 125.945312 31.855469 125.121094 C 32.175781 124.296875 32.578125 123.511719 33.054688 122.769531 C 33.53125 122.023438 34.078125 121.332031 34.691406 120.695312 C 35.304688 120.058594 35.972656 119.484375 36.699219 118.980469 C 37.425781 118.472656 38.195312 118.042969 39.003906 117.6875 C 39.816406 117.335938 40.652344 117.0625 41.515625 116.871094 C 42.378906 116.683594 43.253906 116.578125 44.136719 116.5625 L 85.863281 116.5625 C 88.4375 116.558594 90.824219 115.886719 93.019531 114.542969 L 197.59375 50.609375 C 198.167969 50.242188 198.777344 49.964844 199.429688 49.769531 C 200.078125 49.574219 200.742188 49.46875 201.421875 49.457031 C 202.101562 49.445312 202.765625 49.523438 203.421875 49.695312 C 204.082031 49.867188 204.699219 50.125 205.285156 50.46875 C 205.929688 50.835938 206.515625 51.28125 207.039062 51.808594 C 207.5625 52.332031 208.003906 52.917969 208.367188 53.5625 C 208.730469 54.210938 209 54.894531 209.175781 55.613281 C 209.351562 56.332031 209.429688 57.0625 209.40625 57.804688 Z M 209.476562 315.808594 " fill-opacity="1" fill-rule="nonzero"/><path fill="#d7d7d7" d="M 269.90625 134.621094 C 269.1875 135.164062 268.523438 135.769531 267.921875 136.441406 C 267.320312 137.113281 266.789062 137.835938 266.328125 138.613281 C 265.871094 139.386719 265.492188 140.203125 265.191406 141.050781 C 264.890625 141.902344 264.679688 142.773438 264.550781 143.667969 C 264.425781 144.558594 264.386719 145.457031 264.433594 146.355469 C 264.484375 147.257812 264.621094 148.144531 264.84375 149.019531 C 265.066406 149.890625 265.375 150.734375 265.765625 151.546875 C 266.152344 152.363281 266.621094 153.128906 267.160156 153.851562 C 268.042969 155.03125 268.878906 156.242188 269.667969 157.488281 C 270.453125 158.734375 271.1875 160.011719 271.871094 161.316406 C 272.558594 162.621094 273.1875 163.953125 273.765625 165.308594 C 274.339844 166.664062 274.863281 168.042969 275.328125 169.441406 C 275.796875 170.839844 276.203125 172.253906 276.554688 173.683594 C 276.910156 175.117188 277.203125 176.558594 277.4375 178.011719 C 277.675781 179.46875 277.851562 180.929688 277.96875 182.398438 C 278.089844 183.867188 278.148438 185.339844 278.148438 186.8125 C 278.148438 188.285156 278.089844 189.757812 277.96875 191.226562 C 277.851562 192.695312 277.675781 194.160156 277.4375 195.613281 C 277.203125 197.066406 276.910156 198.511719 276.554688 199.941406 C 276.203125 201.375 275.792969 202.789062 275.328125 204.1875 C 274.863281 205.585938 274.339844 206.960938 273.765625 208.316406 C 273.1875 209.675781 272.558594 211.003906 271.871094 212.308594 C 271.1875 213.617188 270.453125 214.890625 269.667969 216.136719 C 268.878906 217.382812 268.042969 218.597656 267.160156 219.777344 C 266.621094 220.496094 266.152344 221.265625 265.765625 222.078125 C 265.375 222.890625 265.066406 223.734375 264.84375 224.609375 C 264.621094 225.480469 264.484375 226.367188 264.433594 227.269531 C 264.386719 228.167969 264.425781 229.066406 264.550781 229.960938 C 264.679688 230.851562 264.890625 231.722656 265.191406 232.574219 C 265.492188 233.425781 265.871094 234.238281 266.328125 235.015625 C 266.789062 235.789062 267.320312 236.515625 267.921875 237.1875 C 268.523438 237.855469 269.1875 238.464844 269.90625 239.003906 C 270.628906 239.546875 271.394531 240.011719 272.210938 240.402344 C 273.023438 240.792969 273.867188 241.097656 274.738281 241.320312 C 275.613281 241.546875 276.5 241.683594 277.402344 241.730469 C 278.300781 241.78125 279.199219 241.742188 280.089844 241.613281 C 280.984375 241.484375 281.855469 241.273438 282.707031 240.972656 C 283.554688 240.675781 284.371094 240.292969 285.144531 239.835938 C 285.921875 239.375 286.644531 238.84375 287.316406 238.242188 C 287.988281 237.640625 288.59375 236.980469 289.136719 236.257812 C 290.460938 234.488281 291.714844 232.671875 292.894531 230.800781 C 294.074219 228.929688 295.179688 227.015625 296.203125 225.058594 C 297.230469 223.101562 298.175781 221.105469 299.042969 219.070312 C 299.90625 217.035156 300.6875 214.96875 301.386719 212.871094 C 302.085938 210.777344 302.703125 208.652344 303.230469 206.507812 C 303.757812 204.359375 304.199219 202.195312 304.554688 200.011719 C 304.90625 197.832031 305.171875 195.636719 305.351562 193.433594 C 305.527344 191.230469 305.617188 189.023438 305.617188 186.8125 C 305.617188 184.601562 305.527344 182.394531 305.351562 180.191406 C 305.171875 177.988281 304.90625 175.796875 304.554688 173.613281 C 304.199219 171.429688 303.757812 169.265625 303.230469 167.121094 C 302.703125 164.972656 302.085938 162.851562 301.386719 160.753906 C 300.6875 158.65625 299.90625 156.589844 299.042969 154.554688 C 298.175781 152.523438 297.230469 150.527344 296.203125 148.566406 C 295.179688 146.609375 294.074219 144.695312 292.894531 142.824219 C 291.714844 140.957031 290.460938 139.136719 289.136719 137.367188 C 288.59375 136.648438 287.988281 135.984375 287.316406 135.382812 C 286.644531 134.78125 285.921875 134.25 285.144531 133.792969 C 284.371094 133.332031 283.554688 132.953125 282.707031 132.652344 C 281.855469 132.355469 280.984375 132.140625 280.089844 132.011719 C 279.199219 131.886719 278.300781 131.847656 277.402344 131.894531 C 276.5 131.945312 275.613281 132.082031 274.738281 132.304688 C 273.867188 132.527344 273.023438 132.835938 272.210938 133.226562 C 271.394531 133.617188 270.628906 134.082031 269.90625 134.621094 Z M 269.90625 134.621094 " fill-opacity="1" fill-rule="nonzero"/><path fill="#d7d7d7" d="M 330.039062 100.476562 C 329.46875 99.777344 328.839844 99.140625 328.144531 98.5625 C 327.453125 97.988281 326.710938 97.484375 325.917969 97.054688 C 325.125 96.625 324.300781 96.277344 323.4375 96.007812 C 322.578125 95.742188 321.699219 95.5625 320.800781 95.46875 C 319.90625 95.371094 319.007812 95.367188 318.113281 95.449219 C 317.214844 95.53125 316.332031 95.699219 315.46875 95.957031 C 314.605469 96.210938 313.773438 96.550781 312.976562 96.96875 C 312.179688 97.386719 311.429688 97.882812 310.726562 98.449219 C 310.027344 99.015625 309.386719 99.644531 308.8125 100.339844 C 308.234375 101.03125 307.730469 101.773438 307.300781 102.566406 C 306.871094 103.355469 306.519531 104.183594 306.253906 105.042969 C 305.984375 105.902344 305.804688 106.78125 305.707031 107.679688 C 305.613281 108.574219 305.605469 109.472656 305.6875 110.371094 C 305.769531 111.265625 305.9375 112.148438 306.191406 113.011719 C 306.449219 113.878906 306.785156 114.707031 307.203125 115.507812 C 307.621094 116.304688 308.113281 117.054688 308.679688 117.753906 C 310.636719 120.175781 312.488281 122.675781 314.230469 125.257812 C 315.976562 127.835938 317.605469 130.484375 319.125 133.199219 C 320.644531 135.917969 322.046875 138.695312 323.328125 141.53125 C 324.613281 144.367188 325.773438 147.253906 326.8125 150.191406 C 327.847656 153.125 328.757812 156.101562 329.542969 159.113281 C 330.328125 162.125 330.984375 165.164062 331.511719 168.234375 C 332.039062 171.304688 332.433594 174.386719 332.699219 177.488281 C 332.960938 180.59375 333.09375 183.699219 333.09375 186.8125 C 333.09375 189.925781 332.960938 193.035156 332.699219 196.136719 C 332.433594 199.238281 332.039062 202.324219 331.511719 205.390625 C 330.984375 208.460938 330.328125 211.5 329.542969 214.515625 C 328.757812 217.527344 327.847656 220.5 326.8125 223.4375 C 325.773438 226.371094 324.613281 229.257812 323.328125 232.09375 C 322.046875 234.929688 320.644531 237.707031 319.125 240.425781 C 317.605469 243.144531 315.976562 245.792969 314.230469 248.371094 C 312.488281 250.949219 310.636719 253.449219 308.679688 255.871094 C 308.113281 256.570312 307.621094 257.320312 307.199219 258.121094 C 306.78125 258.917969 306.441406 259.75 306.1875 260.613281 C 305.929688 261.480469 305.761719 262.359375 305.679688 263.257812 C 305.597656 264.15625 305.605469 265.054688 305.699219 265.953125 C 305.792969 266.847656 305.976562 267.726562 306.242188 268.589844 C 306.511719 269.449219 306.859375 270.277344 307.289062 271.070312 C 307.722656 271.863281 308.226562 272.605469 308.800781 273.296875 C 309.378906 273.992188 310.019531 274.621094 310.71875 275.1875 C 311.421875 275.753906 312.171875 276.25 312.96875 276.667969 C 313.765625 277.089844 314.597656 277.425781 315.464844 277.679688 C 316.328125 277.9375 317.210938 278.105469 318.109375 278.1875 C 319.007812 278.269531 319.902344 278.265625 320.800781 278.167969 C 321.699219 278.074219 322.578125 277.894531 323.4375 277.625 C 324.300781 277.359375 325.125 277.007812 325.917969 276.578125 C 326.710938 276.148438 327.453125 275.644531 328.148438 275.066406 C 328.839844 274.488281 329.46875 273.851562 330.039062 273.148438 C 331.261719 271.636719 332.449219 270.097656 333.609375 268.535156 C 334.765625 266.96875 335.890625 265.382812 336.980469 263.773438 C 338.070312 262.160156 339.125 260.527344 340.144531 258.871094 C 341.164062 257.214844 342.152344 255.539062 343.101562 253.839844 C 344.050781 252.140625 344.960938 250.425781 345.839844 248.6875 C 346.714844 246.953125 347.554688 245.195312 348.355469 243.425781 C 349.15625 241.652344 349.921875 239.863281 350.648438 238.058594 C 351.371094 236.253906 352.058594 234.433594 352.707031 232.601562 C 353.355469 230.765625 353.964844 228.917969 354.535156 227.058594 C 355.105469 225.199219 355.636719 223.328125 356.128906 221.445312 C 356.617188 219.5625 357.066406 217.671875 357.476562 215.769531 C 357.886719 213.867188 358.257812 211.957031 358.585938 210.042969 C 358.914062 208.125 359.203125 206.199219 359.453125 204.269531 C 359.699219 202.339844 359.90625 200.40625 360.070312 198.46875 C 360.234375 196.53125 360.359375 194.589844 360.441406 192.648438 C 360.523438 190.703125 360.566406 188.757812 360.566406 186.8125 C 360.566406 184.867188 360.523438 182.921875 360.441406 180.980469 C 360.359375 179.035156 360.234375 177.09375 360.070312 175.15625 C 359.90625 173.21875 359.699219 171.285156 359.453125 169.355469 C 359.203125 167.425781 358.914062 165.503906 358.585938 163.585938 C 358.257812 161.667969 357.886719 159.757812 357.476562 157.855469 C 357.066406 155.957031 356.617188 154.0625 356.128906 152.179688 C 355.636719 150.296875 355.105469 148.425781 354.535156 146.566406 C 353.964844 144.707031 353.355469 142.859375 352.707031 141.027344 C 352.058594 139.191406 351.371094 137.371094 350.648438 135.566406 C 349.921875 133.761719 349.15625 131.972656 348.355469 130.203125 C 347.554688 128.429688 346.714844 126.675781 345.839844 124.9375 C 344.960938 123.203125 344.050781 121.484375 343.101562 119.785156 C 342.152344 118.089844 341.164062 116.410156 340.144531 114.753906 C 339.125 113.097656 338.070312 111.464844 336.980469 109.855469 C 335.890625 108.242188 334.765625 106.65625 333.609375 105.09375 C 332.449219 103.527344 331.261719 101.992188 330.039062 100.476562 Z M 330.039062 100.476562 " fill-opacity="1" fill-rule="nonzero"/></svg>