<svg xmlns="http://www.w3.org/2000/svg" xmlns:xlink="http://www.w3.org/1999/xlink" width="500" zoomAndPan="magnify" viewBox="0 0 375 374.999991" height="500" preserveAspectRatio="xMidYMid meet" version="1.0"><defs><clipPath id="d7f3fa30de"><path d="M 14.84375 0 L 56 0 L 56 375 L 14.84375 375 Z M 14.84375 0 " clip-rule="nonzero"/></clipPath><clipPath id="62f056b929"><path d="M 200 6 L 359.84375 6 L 359.84375 375 L 200 375 Z M 200 6 " clip-rule="nonzero"/></clipPath></defs><g clip-path="url(#d7f3fa30de)"><path fill="#ffffff" d="M 41.300781 374.558594 L 28.707031 374.558594 C 21.039062 374.558594 14.828125 368.34375 14.828125 360.675781 L 14.828125 13.847656 C 14.828125 6.179688 21.039062 -0.03125 28.707031 -0.03125 L 41.300781 -0.03125 C 48.96875 -0.03125 55.179688 6.179688 55.179688 13.847656 L 55.179688 360.695312 C 55.179688 368.34375 48.96875 374.558594 41.300781 374.558594 Z M 41.300781 374.558594 " fill-opacity="1" fill-rule="nonzero"/></g><path fill="#ffffff" d="M 134.835938 374.558594 L 122.242188 374.558594 C 114.574219 374.558594 108.363281 368.34375 108.363281 360.675781 L 108.363281 13.847656 C 108.363281 6.179688 114.574219 -0.03125 122.242188 -0.03125 L 134.835938 -0.03125 C 142.503906 -0.03125 148.71875 6.179688 148.71875 13.847656 L 148.71875 360.695312 C 148.71875 368.34375 142.503906 374.558594 134.835938 374.558594 Z M 134.835938 374.558594 " fill-opacity="1" fill-rule="nonzero"/><g clip-path="url(#62f056b929)"><path fill="#ffffff" d="M 200.15625 360.710938 L 200.15625 20.855469 C 200.15625 10.9375 210.261719 4.21875 219.417969 8.058594 L 351.582031 63.664062 C 356.730469 65.832031 360.082031 70.875 360.082031 76.460938 L 360.082031 360.964844 C 360.082031 368.632812 353.851562 374.863281 346.183594 374.84375 L 214.019531 374.589844 C 206.351562 374.574219 200.15625 368.363281 200.15625 360.710938 Z M 200.15625 360.710938 " fill-opacity="1" fill-rule="nonzero"/></g></svg>